<svg width="933" height="936" viewBox="0 0 933 936" fill="none" xmlns="http://www.w3.org/2000/svg">
<path opacity="0.894" d="M235.379 745.225L462.04 505.671L656.301 754.768C656.301 754.768 552.803 794.659 509.772 729.788C509.772 729.788 542.839 880.177 469.741 935.171C469.741 935.171 363.436 888.246 412.817 726.07C412.799 726.034 312.125 791.186 235.379 745.225Z" fill="black"/>
<path opacity="0.894" d="M740.184 698.767L503.77 472.965L778.022 298.387C778.022 298.387 773.777 414.164 730.764 441.811C730.764 441.811 883.205 419.936 932.638 496.823C932.638 496.823 878.1 599.426 719.888 538.24C719.905 538.24 791.67 625.652 740.184 698.767Z" fill="black"/>
<path opacity="0.894" d="M192.419 241.032L428.816 466.904L154.511 641.483C154.511 641.483 158.756 525.705 201.874 498.059C201.874 498.059 49.4336 519.934 0 443.047C0 443.047 54.5383 340.391 212.68 401.56C212.627 401.525 140.915 314.13 192.419 241.032Z" fill="black"/>
<path opacity="0.894" d="M684.322 182.981L469.59 429.535L282.626 163.44C282.626 163.44 398.544 162.387 428.103 204.137C428.103 204.137 399.281 52.8894 473.835 0C473.835 0 578.824 49.7669 524.935 210.505C524.935 210.558 608.979 134.828 684.322 182.981Z" fill="black"/>
</svg>
