<svg width="2418" height="283" viewBox="0 0 2418 283" fill="none" xmlns="http://www.w3.org/2000/svg">
<g clip-path="url(#clip0_1239_748)">
<path d="M711.6 25.4C691.7 14.5 668.1 9 640.7 9H553.3V267.5H640.7C668.1 267.5 691.8 262.1 711.6 251.3C731.5 240.5 746.7 225.3 757.5 205.8C768.2 186.3 773.6 163.8 773.6 138.3C773.6 112.8 768.2 90.3 757.5 71C746.8 51.6 731.5 36.5 711.6 25.5V25.4ZM714.9 181.9C708.5 194.4 699 204.1 686.2 211C673.4 217.9 657.6 221.3 638.5 221.3H602V55.2H638.5C657.5 55.2 673.4 58.6 686.2 65.5C699 72.4 708.5 82 714.9 94.4C721.3 106.8 724.5 121.4 724.5 138.3C724.5 155.2 721.3 169.5 714.9 182V181.9Z" fill="#1E1E1E"/>
<path d="M941.4 90.2001C927.9 81.8001 911.3 77.6001 891.6 77.6001C871.9 77.6001 857.1 82.1001 842.9 91.1001C828.7 100.1 817.5 112.1 809.3 127C801.1 141.9 797 158.2 797 175.7C797 193.2 801.2 211.2 809.5 225.9C817.8 240.6 829.2 252.1 843.8 260.6C858.4 269 874.9 273.2 893.4 273.2C911.9 273.2 931.1 268.8 945 260C959 251.2 970.3 239.2 978.9 224.1L940.6 205.3C936.3 212.8 930.2 219 922.5 223.9C914.8 228.8 905.3 231.3 894 231.3C882.7 231.3 875.6 229.1 867.8 224.6C860 220.1 853.8 213.7 849.2 205.1C846.3 199.7 844.4 193.4 843.4 186.5H981.4C981.6 185.3 981.9 183.3 982.1 180.5C982.3 177.7 982.5 174.4 982.5 170.6C982.5 153.5 979 137.9 972 123.8C965 109.7 954.8 98.5001 941.3 90.0001L941.4 90.2001ZM845.3 153C846.3 149.6 847.4 146.4 848.9 143.4C853.2 134.9 859.2 128.2 866.8 123.4C874.4 118.6 882.7 116.2 891.9 116.2C901.1 116.2 905.1 117.3 910.5 119.6C915.9 121.9 920.5 124.8 924.4 128.4C928.2 132 931.3 136 933.4 140.3C935.5 144.6 936.8 148.8 937 152.9H845.3V153Z" fill="#1E1E1E"/>
<path d="M1087.1 203.2H1084.2L1037.6 83.3999H983.899L1061.8 267.5H1108.8L1187.5 83.3999H1134.4L1087.1 203.2Z" fill="#1E1E1E"/>
<path d="M1210.8 267.5H1259.5V164.2H1363.1V118H1259.5V55.2H1374.7V9H1210.8V267.5Z" fill="#1E1E1E"/>
<path d="M1533.3 90.2001C1519.8 81.8001 1503.2 77.6001 1483.5 77.6001C1463.8 77.6001 1449 82.1001 1434.8 91.1001C1420.6 100.1 1409.4 112.1 1401.2 127C1393 141.9 1388.9 158.2 1388.9 175.7C1388.9 193.2 1393.1 211.2 1401.4 225.9C1409.7 240.6 1421.1 252.1 1435.7 260.6C1450.3 269 1466.8 273.2 1485.3 273.2C1503.8 273.2 1523 268.8 1536.9 260C1550.9 251.2 1562.2 239.2 1570.8 224.1L1532.5 205.3C1528.2 212.8 1522.1 219 1514.4 223.9C1506.7 228.8 1497.2 231.3 1485.9 231.3C1474.6 231.3 1467.5 229.1 1459.7 224.6C1451.9 220.1 1445.7 213.7 1441.1 205.1C1438.2 199.7 1436.3 193.4 1435.3 186.5H1573.3C1573.5 185.3 1573.8 183.3 1574 180.5C1574.2 177.7 1574.4 174.4 1574.4 170.6C1574.4 153.5 1570.9 137.9 1563.9 123.8C1556.9 109.7 1546.7 98.5001 1533.2 90.0001L1533.3 90.2001ZM1437.3 153C1438.3 149.6 1439.4 146.4 1440.9 143.4C1445.2 134.9 1451.2 128.2 1458.8 123.4C1466.4 118.6 1474.7 116.2 1483.9 116.2C1493.1 116.2 1497.1 117.3 1502.5 119.6C1507.9 121.9 1512.5 124.8 1516.4 128.4C1520.2 132 1523.3 136 1525.4 140.3C1527.6 144.6 1528.8 148.8 1529 152.9H1437.3V153Z" fill="#1E1E1E"/>
<path d="M1696.4 157.7L1669.3 151.2C1662.6 149.5 1656.8 147 1652 143.6C1647.2 140.2 1644.8 136.3 1644.8 131.7C1644.8 127.1 1647.2 123.6 1652 120.5C1656.8 117.4 1663.3 115.8 1671.5 115.8C1679.7 115.8 1685 117.2 1691.2 120.1C1697.3 123 1702.3 128 1706.2 135.3L1746.6 117.6C1742.3 108.5 1736.5 100.9 1729.3 95C1722.1 89.1 1713.5 84.7 1703.7 81.8C1693.8 78.9 1682.8 77.5 1670.5 77.5C1658.2 77.5 1645.2 79.8 1634.2 84.4C1623.2 89 1614.6 95.4 1608.2 103.5C1601.8 111.7 1598.6 121.3 1598.6 132.4C1598.6 143.5 1601.1 151 1606 158.6C1610.9 166.2 1617.4 172.4 1625.3 177.4C1633.2 182.3 1641.7 185.8 1650.6 187.7L1672.3 192.4C1677.4 193.4 1682.3 194.6 1687.1 196.2C1691.9 197.8 1695.9 199.9 1699.2 202.7C1702.4 205.5 1704.1 209.3 1704.1 214.1C1704.1 218.9 1701 225.5 1694.7 228C1688.4 230.5 1681.5 231.8 1673.8 231.8C1666.1 231.8 1656.2 229.6 1649.2 225.1C1642.2 220.6 1636.7 214.1 1632.6 205.4L1590.4 223.8C1593.8 232.7 1598.9 240.9 1605.9 248.3C1612.9 255.8 1622 261.8 1633.2 266.4C1644.4 271 1657.9 273.3 1673.8 273.3C1689.7 273.3 1701.4 270.8 1713.2 265.9C1725 261 1734.4 254 1741.4 245C1748.4 236 1751.9 225.4 1751.9 213.4C1751.9 201.4 1747.3 188.4 1738 178.7C1728.7 169.1 1715 162.1 1696.7 157.8L1696.4 157.7Z" fill="#1E1E1E"/>
<path d="M1879 224.4C1875.6 225.5 1872 226 1868.2 226C1860 226 1854.1 223.9 1850.5 219.7C1846.9 215.5 1845.1 208.9 1845.1 200V123.8H1890.2V83.4004H1845.1V31.4004H1797.8V83.4004H1765.7V123.8H1797.8V208.6C1797.8 227.9 1803.2 243 1814 253.9C1824.8 264.9 1839.8 270.3 1858.8 270.3C1877.8 270.3 1870.2 269.8 1875.6 268.7C1881 267.6 1886.4 266.1 1891.7 264.2V218C1886.6 221.1 1882.4 223.2 1879.1 224.3L1879 224.4Z" fill="#1E1E1E"/>
<path d="M2276.8 9.2998H2091C2019.53 9.2998 1961.6 67.2342 1961.6 138.7C1961.6 210.165 2019.53 268.1 2091 268.1H2276.8C2348.27 268.1 2406.2 210.165 2406.2 138.7C2406.2 67.2342 2348.27 9.2998 2276.8 9.2998Z" fill="white" stroke="#1E1E1E" stroke-width="9.6" stroke-linejoin="round"/>
<path d="M2063.2 178.7V169.1C2063.4 168.9 2064.1 168.1 2065.2 166.9C2066.3 165.7 2067.8 164.1 2069.5 162.1C2071.2 160.2 2073.1 158.1 2075.1 155.9C2077.1 153.7 2079.1 151.4 2081.2 149.2C2083.2 146.9 2085.1 144.9 2086.9 143C2088.6 141.1 2090 139.6 2091.1 138.5C2094.6 134.7 2097.3 131.2 2099 128.3C2100.7 125.3 2101.5 122.2 2101.5 118.8C2101.5 115.4 2100.9 114 2099.7 112C2098.5 109.9 2096.8 108.3 2094.5 107C2092.3 105.8 2089.7 105.1 2086.7 105.1C2083.7 105.1 2081.5 105.7 2079.4 106.9C2077.3 108.1 2075.7 109.6 2074.4 111.3C2073.2 113 2072.3 114.7 2072 116.4L2063.3 112.9C2063.8 111.3 2064.6 109.6 2065.7 107.6C2066.8 105.6 2068.4 103.8 2070.4 102C2072.4 100.2 2074.7 98.6999 2077.5 97.5999C2080.3 96.4999 2083.5 95.8999 2087.1 95.8999C2090.7 95.8999 2096.5 96.9999 2100.1 99.1999C2103.7 101.4 2106.5 104.2 2108.4 107.6C2110.3 111 2111.3 114.7 2111.3 118.6C2111.3 122.5 2110.6 125.3 2109.2 128.6C2107.8 131.8 2106 134.8 2104 137.6C2102 140.4 2100 142.7 2098.1 144.7C2097.1 145.7 2095.8 147.1 2094.1 148.9C2092.4 150.7 2090.6 152.7 2088.6 154.9C2086.6 157.1 2084.7 159.1 2082.8 161.2C2080.9 163.2 2079.3 165 2077.9 166.5C2076.5 168 2075.5 169 2075 169.6H2112V178.8H2063.1L2063.2 178.7Z" fill="#1E1E1E"/>
<path d="M2152.7 180.5C2147.9 180.5 2143.7 179.4 2139.9 177.2C2136.1 175 2132.9 172 2130.2 168.1C2127.5 164.3 2125.4 159.8 2124 154.6C2122.6 149.5 2121.8 144 2121.8 138.1C2121.8 132.2 2122.5 126.7 2124 121.6C2125.4 116.5 2127.5 112 2130.2 108.1C2132.9 104.2 2136.2 101.2 2139.9 98.9998C2143.7 96.8998 2147.9 95.7998 2152.7 95.7998C2157.5 95.7998 2161.7 96.8998 2165.5 98.9998C2169.3 101.2 2172.6 104.2 2175.3 108.1C2178 112 2180.1 116.5 2181.5 121.6C2182.9 126.7 2183.6 132.2 2183.6 138.1C2183.6 144 2182.9 149.5 2181.5 154.6C2180.1 159.7 2178 164.2 2175.3 168.1C2172.6 171.9 2169.3 175 2165.5 177.2C2161.7 179.4 2157.4 180.5 2152.7 180.5ZM2152.7 171.4C2157.1 171.4 2160.9 169.9 2164 167C2167.2 164.1 2169.6 160.1 2171.3 155.1C2173 150.1 2173.8 144.5 2173.8 138.3C2173.8 132.1 2173 126.4 2171.3 121.4C2169.6 116.4 2167.2 112.5 2164 109.5C2160.8 106.6 2157.1 105.1 2152.7 105.1C2148.3 105.1 2144.6 106.6 2141.4 109.5C2138.3 112.4 2135.9 116.4 2134.2 121.4C2132.5 126.4 2131.7 132 2131.7 138.3C2131.7 144.6 2132.5 150.1 2134.2 155.1C2135.9 160.1 2138.3 164.1 2141.4 167C2144.5 169.9 2148.3 171.4 2152.7 171.4Z" fill="#1E1E1E"/>
<path d="M2191.9 178.7V169.1C2192.1 168.9 2192.8 168.1 2193.9 166.9C2195 165.7 2196.5 164.1 2198.2 162.1C2199.9 160.2 2201.8 158.1 2203.8 155.9C2205.8 153.7 2207.8 151.4 2209.9 149.2C2211.9 146.9 2213.8 144.9 2215.6 143C2217.3 141.1 2218.7 139.6 2219.8 138.5C2223.3 134.7 2226 131.2 2227.7 128.3C2229.4 125.3 2230.2 122.2 2230.2 118.8C2230.2 115.4 2229.6 114 2228.4 112C2227.2 109.9 2225.5 108.3 2223.2 107C2221 105.8 2218.4 105.1 2215.4 105.1C2212.4 105.1 2210.2 105.7 2208.1 106.9C2206 108.1 2204.4 109.6 2203.1 111.3C2201.9 113 2201 114.7 2200.7 116.4L2192 112.9C2192.5 111.3 2193.3 109.6 2194.4 107.6C2195.5 105.6 2197.1 103.8 2199.1 102C2201.1 100.2 2203.4 98.6999 2206.2 97.5999C2209 96.4999 2212.2 95.8999 2215.8 95.8999C2219.4 95.8999 2225.2 96.9999 2228.8 99.1999C2232.4 101.4 2235.2 104.2 2237.1 107.6C2239 111 2240 114.7 2240 118.6C2240 122.5 2239.3 125.3 2237.9 128.6C2236.5 131.8 2234.7 134.8 2232.7 137.6C2230.7 140.4 2228.7 142.7 2226.8 144.7C2225.8 145.7 2224.5 147.1 2222.8 148.9C2221.1 150.7 2219.3 152.7 2217.3 154.9C2215.3 157.1 2213.4 159.1 2211.5 161.2C2209.6 163.2 2208 165 2206.6 166.5C2205.2 168 2204.2 169 2203.7 169.6H2240.7V178.8H2191.8L2191.9 178.7Z" fill="#1E1E1E"/>
<path d="M2247.8 160.8V153.6L2285.5 97.6997H2295.7V178.7H2286.3V112.4H2285.7L2258.6 151.8H2304.9V160.9H2247.7L2247.8 160.8Z" fill="#1E1E1E"/>
<path d="M134.889 21.0448L28.5061 97.4887C6.21554 113.506 1.13014 144.561 17.1475 166.851L17.2059 166.932C33.2232 189.223 64.2779 194.308 86.5684 178.291L192.951 101.847C215.242 85.8298 220.327 54.7751 204.31 32.4846L204.252 32.4034C188.234 10.1129 157.18 5.02747 134.889 21.0448Z" fill="#EA4335" stroke="#1E1E1E" stroke-width="9.6" stroke-miterlimit="10"/>
<path d="M17.2127 108.859L17.1543 108.94C1.13698 131.231 6.22238 162.285 28.5129 178.303L134.896 254.747C157.186 270.764 188.241 265.679 204.258 243.388L204.317 243.307C220.334 221.016 215.249 189.962 192.958 173.944L86.5752 97.5005C64.2847 81.4831 33.2301 86.5685 17.2127 108.859Z" fill="#4285F4" stroke="#1E1E1E" stroke-width="9.6" stroke-miterlimit="10"/>
<path d="M391.714 97.435L285.331 173.879C263.041 189.896 257.955 220.951 273.973 243.241L274.031 243.323C290.048 265.613 321.103 270.699 343.394 254.681L449.777 178.237C472.067 162.22 477.152 131.165 461.135 108.875L461.077 108.794C445.059 86.503 414.005 81.4176 391.714 97.435Z" fill="#F9AB00" stroke="#1E1E1E" stroke-width="9.6" stroke-miterlimit="10"/>
<path d="M274.022 32.4337L273.964 32.5149C257.947 54.8054 263.032 85.8601 285.322 101.877L391.705 178.321C413.996 194.339 445.051 189.253 461.068 166.963L461.126 166.882C477.144 144.591 472.058 113.536 449.768 97.5191L343.385 21.0752C321.094 5.05781 290.04 10.1432 274.022 32.4337Z" fill="#34A853" stroke="#1E1E1E" stroke-width="9.6" stroke-miterlimit="10"/>
</g>
<defs>
<clipPath id="clip0_1239_748">
<rect width="2417.4" height="282.3" fill="white"/>
</clipPath>
</defs>
</svg>
