<svg width="200" height="74" viewBox="0 0 200 74" fill="none" xmlns="http://www.w3.org/2000/svg">
<path fill-rule="evenodd" clip-rule="evenodd" d="M31.9206 33.9206L28.9206 35.5556L27.9524 33.4444C26.9524 34.6667 25.4762 35.5556 23.5556 35.5556C19.9048 35.5556 18 32.5238 18 27.8572C18 22.7778 20.254 20.0317 23.8413 20.0317C25.5238 20.0317 26.8413 20.6667 27.6984 21.8413V14.3651H30.7778V31.6508L31.9206 33.9206ZM27.6984 31.8571V23.9048C26.9048 23.254 25.9048 22.8572 24.8413 22.8572C22.5714 22.8572 21.2222 24.5873 21.2222 27.873C21.2222 31 22.4762 32.746 24.7937 32.746C25.8254 32.746 26.873 32.3968 27.6984 31.8571Z" fill="black"/>
<path fill-rule="evenodd" clip-rule="evenodd" d="M47.2064 28.1429H37.1111C37.3016 30.7302 39.3333 32.4762 42.5238 32.4762C44.1587 32.4762 45.9206 32.127 47.127 31.5079L46.1429 34.6667C45.1587 35.2064 43.4762 35.5556 41.5238 35.5556C36.9365 35.5556 33.9206 32.4444 33.9206 27.7143C33.9206 22.9524 36.7936 20.0317 41.381 20.0317C45.1746 20.0317 47.5714 22.2064 47.5714 25.7143C47.5714 26.5079 47.4286 27.4603 47.2064 28.1429ZM37.2857 26H44.5556C44.4127 23.7778 43.3492 22.7143 41.381 22.7143C39.254 22.7143 37.7619 23.9524 37.2857 26Z" fill="black"/>
<path d="M54.6984 35.1905L48.8889 20.4127H52.2857L56.0794 30.7302L56.5079 32.0159H56.619L57.0476 30.7302L60.8095 20.4127H64.1429L58.3492 35.1905H54.6984Z" fill="black"/>
<path d="M74.2381 20.4444H80.9206L80.4921 22.8095H73.8095L71.4762 36.0953C70.8254 39.8095 68.3333 41.2064 64.8571 41.2064C63.254 41.2064 62.5238 40.9683 61.7143 40.7937L61.6667 38.4127C62.4603 38.5556 63.3968 38.6349 64.7143 38.6349C66.7937 38.6349 68.1587 37.8095 68.4762 36.0635L70.8254 22.8095H66.1746L66.6032 20.4444H71.2381L71.4762 19.0635C72.127 15.3968 74.5873 14 78.0318 14C79.6667 14 80.4921 14.2222 81.2064 14.3968L81.254 16.8413C80.4603 16.6508 79.5238 16.5556 78.2063 16.5556C76.1587 16.5556 74.7778 17.381 74.4762 19.127L74.2381 20.4444Z" fill="black"/>
<path fill-rule="evenodd" clip-rule="evenodd" d="M94.6825 28.1429H84.5873C84.7937 30.7302 86.8095 32.4762 90.0159 32.4762C91.6349 32.4762 93.4127 32.127 94.6032 31.5079L93.6349 34.6667C92.6349 35.2064 90.9524 35.5556 89.0159 35.5556C84.4286 35.5556 81.3968 32.4444 81.3968 27.7143C81.3968 22.9524 84.2857 20.0317 88.873 20.0317C92.6667 20.0317 95.0635 22.2064 95.0635 25.7143C95.0635 26.5079 94.9206 27.4603 94.6825 28.1429ZM84.7619 26H92.0318C91.8889 23.7778 90.8413 22.7143 88.873 22.7143C86.7302 22.7143 85.254 23.9524 84.7619 26Z" fill="black"/>
<path d="M98 34.3016L97.7937 30.9841C99.1111 31.9048 101.508 32.6984 104.016 32.6984C105.921 32.6984 107.286 32.0952 107.286 30.7619C107.286 27.9683 98.1111 30.5556 98.1111 24.8571C98.1111 22.2064 100.111 19.9524 104.873 19.9524C107.778 19.9524 110 20.6667 110 22.4286C110 22.9841 109.778 23.4286 109.54 23.8571C108.286 23.254 106.317 22.8413 104.667 22.8413C102.381 22.8413 101.19 23.6825 101.19 24.6349C101.19 27.1111 110.492 24.9365 110.492 30.5079C110.492 33.619 107.746 35.5556 103.667 35.5556C100.905 35.5556 98.8254 34.6667 98 34.3016Z" fill="black"/>
<path d="M126.365 32.0476L125.746 34.9206C125 35.2381 123.524 35.5556 122.159 35.5556C118.476 35.5556 116.905 33.6349 116.905 30.9365V23H112.714V20.4127H116.905V16.3651H119.984V20.4127H125.952V23H119.984V30C119.984 31.9048 120.984 32.7619 122.714 32.7619C123.714 32.7619 125.54 32.5238 126.365 32.0476Z" fill="black"/>
<path d="M142.508 33.7302V35.1905H132.429V33.6667C136.889 29.9048 139.873 27.746 139.873 24.7619C139.873 22.6349 138.444 21.6825 136.492 21.6825C134.984 21.6825 133.667 22.3333 132.984 22.8889C132.746 22.746 132.476 22.4444 132.476 22C132.476 20.8889 134.381 20.0635 136.603 20.0635C139.651 20.0635 141.619 21.6825 141.619 24.6191C141.619 28.2698 138.571 30.5714 134.508 33.7302H142.508Z" fill="#80868B"/>
<path fill-rule="evenodd" clip-rule="evenodd" d="M145.016 27.7619C145.016 22.6984 147.095 20.0635 150.524 20.0635C153.905 20.0635 156.032 22.6984 156.032 27.7619C156.032 32.8254 153.905 35.4603 150.524 35.4603C147.095 35.4603 145.016 32.8254 145.016 27.7619ZM154.254 27.7619C154.254 23.6984 152.921 21.6825 150.524 21.6825C148.095 21.6825 146.778 23.6984 146.778 27.7619C146.778 31.8254 148.095 33.8571 150.524 33.8571C152.921 33.8571 154.254 31.8254 154.254 27.7619ZM149.317 28.8889V26.5714H151.651V28.8889H149.317Z" fill="#80868B"/>
<path d="M168.667 33.7302V35.1905H158.587V33.6667C163.048 29.9048 166.032 27.746 166.032 24.7619C166.032 22.6349 164.603 21.6825 162.651 21.6825C161.143 21.6825 159.81 22.3333 159.143 22.8889C158.905 22.746 158.619 22.4444 158.619 22C158.619 20.8889 160.54 20.0635 162.746 20.0635C165.81 20.0635 167.778 21.6825 167.778 24.6191C167.778 28.2698 164.73 30.5714 160.667 33.7302H168.667Z" fill="#80868B"/>
<path d="M181.746 33.7302V35.1905H171.667V33.6667C176.127 29.9048 179.111 27.746 179.111 24.7619C179.111 22.6349 177.683 21.6825 175.73 21.6825C174.206 21.6825 172.889 22.3333 172.222 22.8889C171.984 22.746 171.698 22.4444 171.698 22C171.698 20.8889 173.619 20.0635 175.825 20.0635C178.889 20.0635 180.841 21.6825 180.841 24.6191C180.841 28.2698 177.81 30.5714 173.746 33.7302H181.746Z" fill="#80868B"/>
<path d="M141.333 59.1111C140.476 59.1111 139.693 58.9048 138.984 58.4921C138.285 58.0899 137.73 57.5291 137.317 56.8095C136.915 56.1005 136.714 55.3122 136.714 54.4444C136.714 53.5767 136.915 52.7883 137.317 52.0794C137.73 51.3598 138.285 50.7989 138.984 50.3968C139.693 49.9841 140.476 49.7778 141.333 49.7778C142.01 49.7778 142.619 49.91 143.159 50.1746C143.719 50.418 144.201 50.7725 144.603 51.2381L143.857 51.9682C143.518 51.5661 143.143 51.2698 142.73 51.0793C142.317 50.8889 141.852 50.7936 141.333 50.7936C140.688 50.7936 140.095 50.9471 139.555 51.254C139.016 51.5503 138.587 51.9788 138.27 52.5397C137.952 53.0899 137.793 53.7249 137.793 54.4444C137.793 55.164 137.952 55.8042 138.27 56.3651C138.587 56.9153 139.016 57.3439 139.555 57.6508C140.095 57.9471 140.688 58.0952 141.333 58.0952C142.423 58.0952 143.344 57.6508 144.095 56.7619L144.857 57.5079C144.455 57.9947 143.947 58.3862 143.333 58.6825C142.73 58.9682 142.063 59.1111 141.333 59.1111ZM146.016 58.9047V49.9841H147.079V52.7778L147.032 53.6508H147.079C147.248 53.3333 147.518 53.0635 147.889 52.8413C148.259 52.6296 148.661 52.5238 149.095 52.5238C149.867 52.5238 150.449 52.746 150.841 53.1905C151.233 53.6455 151.428 54.2434 151.428 54.9841V58.9047H150.381V55.1587C150.381 54.5767 150.238 54.1534 149.952 53.8889C149.677 53.6137 149.307 53.4762 148.841 53.4762C148.513 53.4762 148.211 53.5767 147.936 53.7778C147.672 53.9682 147.46 54.2275 147.301 54.5555C147.153 54.873 147.079 55.2011 147.079 55.5397V58.9047H146.016ZM155.682 59.1111C155.079 59.1111 154.539 58.9682 154.063 58.6825C153.598 58.3968 153.233 58.0053 152.968 57.5079C152.703 57.0106 152.571 56.4444 152.571 55.8095C152.571 55.2169 152.698 54.6719 152.952 54.1746C153.196 53.6666 153.545 53.2645 154 52.9682C154.465 52.6719 155 52.5238 155.603 52.5238C156.196 52.5238 156.719 52.6614 157.174 52.9365C157.629 53.201 157.979 53.5767 158.222 54.0635C158.455 54.5608 158.571 55.127 158.571 55.7619C158.571 55.8783 158.566 55.963 158.555 56.0159H153.651C153.661 56.4815 153.772 56.873 153.984 57.1905C154.185 57.5079 154.439 57.746 154.746 57.9047C155.063 58.0635 155.391 58.1428 155.73 58.1428C156.502 58.1428 157.106 57.7619 157.539 57L158.46 57.4444C158.196 57.9418 157.83 58.3439 157.365 58.6508C156.899 58.9577 156.338 59.1111 155.682 59.1111ZM153.714 55.127H157.46C157.439 54.8836 157.365 54.6349 157.238 54.3809C157.121 54.127 156.92 53.9153 156.635 53.746C156.36 53.5661 156.005 53.4762 155.571 53.4762C155.106 53.4762 154.703 53.6296 154.365 53.9365C154.026 54.2328 153.809 54.6296 153.714 55.127ZM159.778 58.9047V52.7301H160.778V53.6508H160.841C161.01 53.3333 161.28 53.0635 161.651 52.8413C162.032 52.6296 162.434 52.5238 162.857 52.5238C163.608 52.5238 164.18 52.746 164.571 53.1905C164.973 53.6243 165.174 54.2222 165.174 54.9841V58.9047H164.127V55.1587C164.127 54.037 163.608 53.4762 162.571 53.4762C162.233 53.4762 161.931 53.5714 161.666 53.7619C161.402 53.9629 161.196 54.2169 161.047 54.5238C160.91 54.8307 160.841 55.1534 160.841 55.492V58.9047H159.778ZM166.682 58.9047V52.7301H167.682V53.6508H167.73C167.91 53.3333 168.185 53.0635 168.555 52.8413C168.936 52.6296 169.338 52.5238 169.762 52.5238C170.513 52.5238 171.084 52.746 171.476 53.1905C171.878 53.6243 172.079 54.2222 172.079 54.9841V58.9047H171.032V55.1587C171.032 54.037 170.513 53.4762 169.476 53.4762C169.137 53.4762 168.836 53.5714 168.571 53.7619C168.307 53.9629 168.1 54.2169 167.952 54.5238C167.804 54.8307 167.73 55.1534 167.73 55.492V58.9047H166.682ZM175.539 59.1111C175.095 59.1111 174.688 59.0211 174.317 58.8413C173.957 58.6614 173.677 58.4127 173.476 58.0952C173.275 57.7672 173.174 57.4074 173.174 57.0159C173.174 56.3598 173.418 55.8466 173.905 55.4762C174.402 55.1164 175.037 54.9365 175.809 54.9365C176.19 54.9365 176.534 54.9735 176.841 55.0476C177.148 55.1323 177.397 55.2275 177.587 55.3333V55C177.587 54.7037 177.508 54.4391 177.349 54.2063C177.201 53.963 176.994 53.7778 176.73 53.6508C176.476 53.5238 176.201 53.4603 175.905 53.4603C175.196 53.4603 174.656 53.746 174.285 54.3174L173.397 53.7301C173.651 53.3492 173.989 53.0529 174.412 52.8413C174.836 52.6296 175.317 52.5238 175.857 52.5238C176.703 52.5238 177.37 52.7513 177.857 53.2063C178.344 53.6614 178.587 54.2751 178.587 55.0476V58.9047H177.587V58H177.539C177.338 58.3175 177.069 58.582 176.73 58.7936C176.381 59.0053 175.984 59.1111 175.539 59.1111ZM175.619 58.1746C175.957 58.1746 176.275 58.0846 176.571 57.9047C176.867 57.7354 177.111 57.4973 177.301 57.1905C177.492 56.8942 177.587 56.5714 177.587 56.2222C177.121 55.9259 176.582 55.7778 175.968 55.7778C175.45 55.7778 175.032 55.8995 174.714 56.1428C174.407 56.3756 174.254 56.6719 174.254 57.0317C174.254 57.3703 174.391 57.6455 174.666 57.8571C174.942 58.0688 175.259 58.1746 175.619 58.1746ZM180.666 51.4286C180.455 51.4286 180.275 51.3545 180.127 51.2063C179.979 51.0582 179.905 50.8783 179.905 50.6666C179.905 50.455 179.979 50.2751 180.127 50.127C180.275 49.9788 180.455 49.9048 180.666 49.9048C180.867 49.9048 181.042 49.9788 181.19 50.127C181.349 50.2751 181.428 50.455 181.428 50.6666C181.428 50.8783 181.349 51.0582 181.19 51.2063C181.053 51.3545 180.878 51.4286 180.666 51.4286ZM180.143 58.9047V52.7301H181.19V58.9047H180.143Z" fill="#4285F4"/>
</svg>
