<svg width="572" height="260" viewBox="0 0 1900 548" fill="none" xmlns="http://www.w3.org/2000/svg">
<path d="M13.6004 321.5H35.8004C43.7004 321.5 50.1004 327.9 50.1004 335.8V467.4C50.1004 507 82.1004 539 121.7 539H178.9C182.1 539 184.6 536.5 184.6 533.3V453C184.6 449.8 182.1 447.3 178.9 447.3H135C127.1 447.3 120.7 440.9 120.7 432.9V114.8C120.7 106.9 127.1 100.5 135 100.5H178.9C182.1 100.5 184.6 97.9002 184.6 94.8002V14.5002C184.6 11.3002 182.1 8.7002 178.9 8.7002H121.7C82.1004 8.7002 50.1004 40.8002 50.1004 80.3002V211.9C50.1004 219.8 43.7004 226.2 35.8004 226.2H13.6004C10.4004 226.2 7.90039 228.7 7.90039 231.9V315.8C7.90039 318.9 10.4004 321.5 13.6004 321.5Z" fill="#F9AB00" stroke="#1E1E1E" stroke-width="9.6" stroke-miterlimit="10"/>
<path d="M1886 226.3H1863.8C1855.9 226.3 1849.5 219.8 1849.5 211.9V80.3002C1849.5 40.8002 1817.4 8.7002 1777.9 8.7002H1720.6C1717.5 8.7002 1714.9 11.3002 1714.9 14.5002V94.8002C1714.9 97.9002 1717.5 100.5 1720.6 100.5H1764.6C1772.5 100.5 1778.9 106.9 1778.9 114.8V432.9C1778.9 440.9 1772.5 447.3 1764.6 447.3H1720.6C1717.5 447.3 1714.9 449.8 1714.9 453V533.3C1714.9 536.5 1717.5 539 1720.6 539H1777.9C1817.4 539 1849.5 507 1849.5 467.4V335.9C1849.5 328 1855.9 321.6 1863.8 321.6H1886C1889.1 321.6 1891.7 319 1891.7 315.9V232C1891.7 228.8 1889.1 226.3 1886 226.3Z" fill="#F9AB00" stroke="#1E1E1E" stroke-width="9.6" stroke-miterlimit="10"/>
<path fill-rule="evenodd" clip-rule="evenodd" d="M475.101 72.1002C486.034 91.9002 491.501 114.834 491.501 140.9C491.501 166.967 486.034 189.967 475.101 209.9C464.167 229.834 448.534 245.334 428.201 256.4C407.867 267.467 383.701 273 355.701 273H266.301V8.7002H355.701C383.701 8.7002 407.867 14.3002 428.201 25.5002C448.534 36.7002 464.167 52.2335 475.101 72.1002ZM441.301 140.9C441.301 123.7 438.034 108.734 431.501 96.0002C424.967 83.3335 415.201 73.5002 402.201 66.5002C389.134 59.5002 372.901 56.0002 353.501 56.0002H316.201V225.8H353.501C372.901 225.8 389.134 222.3 402.201 215.3C415.201 208.3 424.967 198.4 431.501 185.6C438.034 172.8 441.301 157.9 441.301 140.9Z" fill="#1E1E1E"/>
<path fill-rule="evenodd" clip-rule="evenodd" d="M694.501 126.3C701.634 140.7 705.201 156.634 705.201 174.1C705.201 178.034 705.101 181.434 704.901 184.3C704.634 187.1 704.368 189.134 704.101 190.4H562.901C564.034 197.467 566.068 203.8 569.001 209.4C573.668 218.134 580.001 224.767 588.001 229.3C596.001 233.834 604.934 236.1 614.801 236.1C626.334 236.1 636.068 233.6 644.001 228.6C651.868 223.534 658.001 217.2 662.401 209.6L701.601 228.8C692.734 244.267 681.168 256.5 666.901 265.5C652.568 274.5 634.968 279 614.101 279C595.101 279 578.168 274.667 563.301 266C548.434 257.4 536.734 245.6 528.201 230.6C519.734 215.6 515.501 198.5 515.501 179.3C515.501 161.3 519.701 144.7 528.101 129.5C536.434 114.234 547.868 101.967 562.401 92.7004C576.934 83.5004 593.534 78.9004 612.201 78.9004C632.401 78.9004 649.401 83.2004 663.201 91.8004C676.934 100.4 687.368 111.9 694.501 126.3ZM658.701 156C658.501 151.867 657.268 147.567 655.001 143.1C652.801 138.7 649.734 134.634 645.801 130.9C641.868 127.234 637.134 124.234 631.601 121.9C626.068 119.567 619.734 118.4 612.601 118.4C603.268 118.4 594.701 120.867 586.901 125.8C579.168 130.667 573.101 137.467 568.701 146.2C567.101 149.267 565.801 152.534 564.801 156H658.701Z" fill="#1E1E1E"/>
<path d="M812.101 207.3H809.201L761.601 84.8003H706.601L786.301 273H834.301L914.801 84.8003H860.501L812.101 207.3Z" fill="#1E1E1E"/>
<path d="M938.601 273H988.401V167.5H1094.4V120.2H988.401V56.0002H1106.2V8.7002H938.601V273Z" fill="#1E1E1E"/>
<path fill-rule="evenodd" clip-rule="evenodd" d="M1299.8 126.3C1306.93 140.7 1310.5 156.634 1310.5 174.1C1310.5 178.034 1310.37 181.434 1310.1 184.3C1309.83 187.1 1309.6 189.134 1309.4 190.4H1168.2C1169.27 197.467 1171.3 203.8 1174.3 209.4C1178.97 218.134 1185.3 224.767 1193.3 229.3C1201.3 233.834 1210.2 236.1 1220 236.1C1231.6 236.1 1241.33 233.6 1249.2 228.6C1257.07 223.534 1263.23 217.2 1267.7 209.6L1306.8 228.8C1297.93 244.267 1286.37 256.5 1272.1 265.5C1257.83 274.5 1240.23 279 1219.3 279C1200.37 279 1183.43 274.667 1168.5 266C1153.63 257.4 1141.97 245.6 1133.5 230.6C1124.97 215.6 1120.7 198.5 1120.7 179.3C1120.7 161.3 1124.9 144.7 1133.3 129.5C1141.63 114.234 1153.07 101.967 1167.6 92.7004C1182.13 83.5004 1198.77 78.9004 1217.5 78.9004C1237.63 78.9004 1254.6 83.2004 1268.4 91.8004C1282.2 100.4 1292.67 111.9 1299.8 126.3ZM1264 156C1263.73 151.867 1262.5 147.567 1260.3 143.1C1258.1 138.7 1255.03 134.634 1251.1 130.9C1247.1 127.234 1242.33 124.234 1236.8 121.9C1231.27 119.567 1224.93 118.4 1217.8 118.4C1208.47 118.4 1199.93 120.867 1192.2 125.8C1184.4 130.667 1178.3 137.467 1173.9 146.2C1172.37 149.267 1171.1 152.534 1170.1 156H1264Z" fill="#1E1E1E"/>
<path d="M1435.1 160.8L1407.5 154.2C1400.57 152.467 1394.63 149.867 1389.7 146.4C1384.83 143 1382.4 138.967 1382.4 134.3C1382.4 129.834 1384.83 126 1389.7 122.8C1394.63 119.6 1401.3 118 1409.7 118C1416.83 118 1423.53 119.467 1429.8 122.4C1436.07 125.4 1441.17 130.567 1445.1 137.9L1486.5 119.9C1482.03 110.5 1476.1 102.8 1468.7 96.8004C1461.37 90.7337 1452.63 86.2337 1442.5 83.3004C1432.43 80.3671 1421.13 78.9004 1408.6 78.9004C1395.07 78.9004 1382.7 81.2337 1371.5 85.9004C1360.3 90.5671 1351.43 97.1004 1344.9 105.5C1338.37 113.834 1335.1 123.667 1335.1 135C1335.1 145.067 1337.63 154 1342.7 161.8C1347.7 169.534 1354.27 175.9 1362.4 180.9C1370.53 185.967 1379.17 189.5 1388.3 191.5L1410.4 196.3C1415.6 197.234 1420.63 198.5 1425.5 200.1C1430.43 201.7 1434.57 203.934 1437.9 206.8C1441.23 209.6 1442.9 213.467 1442.9 218.4C1442.9 225.334 1439.7 230.067 1433.3 232.6C1426.9 235.2 1419.77 236.5 1411.9 236.5C1402.3 236.5 1393.93 234.234 1386.8 229.7C1379.67 225.1 1374 218.4 1369.8 209.6L1326.6 228.4C1330.07 237.467 1335.37 245.834 1342.5 253.5C1349.63 261.1 1358.93 267.234 1370.4 271.9C1381.8 276.634 1395.63 279 1411.9 279C1426.63 279 1440.03 276.467 1452.1 271.4C1464.17 266.334 1473.77 259.2 1480.9 250C1488.03 240.734 1491.6 229.967 1491.6 217.7C1491.6 203.9 1486.87 192.067 1477.4 182.2C1467.93 172.4 1453.83 165.267 1435.1 160.8Z" fill="#1E1E1E"/>
<path d="M1621.9 228.9C1618.43 230.033 1614.73 230.6 1610.8 230.6C1602.47 230.6 1596.43 228.433 1592.7 224.1C1589.03 219.833 1587.2 213.133 1587.2 204V126.1H1633.3V84.8001H1587.2V31.6001H1538.8V84.8001H1506V126.1H1538.8V212.9C1538.8 232.567 1544.33 248 1555.4 259.2C1566.53 270.4 1581.8 276 1601.2 276C1607.13 276 1612.87 275.433 1618.4 274.3C1623.93 273.233 1629.4 271.7 1634.8 269.7V222.5C1629.67 225.7 1625.37 227.833 1621.9 228.9Z" fill="#1E1E1E"/>
<path d="M363.2 539H1534.5C1588.4 539 1632.1 495.3 1632.1 441.4C1632.1 387.4 1588.4 343.7 1534.5 343.7H363.2C309.2 343.7 265.5 387.4 265.5 441.4C265.5 495.3 309.2 539 363.2 539Z" fill="white" stroke="#1E1E1E" stroke-width="9.6" stroke-linejoin="round"/>
<path d="M1107.74 418.52C1106.24 418.52 1104.95 417.98 1103.87 416.9C1102.79 415.82 1102.25 414.53 1102.25 413.03C1102.25 411.53 1102.79 410.27 1103.87 409.25C1104.95 408.17 1106.24 407.63 1107.74 407.63C1109.24 407.63 1110.53 408.17 1111.61 409.25C1112.69 410.27 1113.23 411.53 1113.23 413.03C1113.23 414.53 1112.69 415.82 1111.61 416.9C1110.59 417.98 1109.3 418.52 1107.74 418.52ZM1103.96 426.98H1111.52V472.88H1103.96V426.98Z" fill="black"/>
<path d="M1070.09 474.32C1066.73 474.32 1063.73 473.66 1061.09 472.34C1058.45 471.02 1056.41 469.22 1054.97 466.94C1053.53 464.6 1052.81 461.96 1052.81 459.02C1052.81 454.16 1054.64 450.38 1058.3 447.68C1061.96 444.92 1066.58 443.54 1072.16 443.54C1074.92 443.54 1077.47 443.84 1079.81 444.44C1082.21 445.04 1084.04 445.73 1085.3 446.51V443.72C1085.3 440.3 1084.1 437.57 1081.7 435.53C1079.3 433.43 1076.27 432.38 1072.61 432.38C1070.03 432.38 1067.66 432.95 1065.5 434.09C1063.34 435.17 1061.63 436.7 1060.37 438.68L1054.61 434.36C1056.41 431.6 1058.87 429.44 1061.99 427.88C1065.17 426.32 1068.68 425.54 1072.52 425.54C1078.76 425.54 1083.65 427.19 1087.19 430.49C1090.79 433.73 1092.59 438.17 1092.59 443.81V472.88H1085.3V466.31H1084.94C1083.62 468.53 1081.64 470.42 1079 471.98C1076.36 473.54 1073.39 474.32 1070.09 474.32ZM1070.81 467.57C1073.39 467.57 1075.79 466.91 1078.01 465.59C1080.23 464.27 1082 462.5 1083.32 460.28C1084.64 458.06 1085.3 455.63 1085.3 452.99C1083.86 452.03 1082.09 451.25 1079.99 450.65C1077.89 450.05 1075.67 449.75 1073.33 449.75C1069.13 449.75 1065.95 450.62 1063.79 452.36C1061.69 454.1 1060.64 456.35 1060.64 459.11C1060.64 461.63 1061.6 463.67 1063.52 465.23C1065.44 466.79 1067.87 467.57 1070.81 467.57Z" fill="black"/>
<path d="M1005.41 426.98H1012.7V433.73H1013.06C1014.32 431.45 1016.33 429.53 1019.09 427.97C1021.85 426.35 1024.79 425.54 1027.91 425.54C1033.43 425.54 1037.63 427.16 1040.51 430.4C1043.45 433.58 1044.92 437.93 1044.92 443.45V472.88H1037.27V444.62C1037.27 440.36 1036.25 437.27 1034.21 435.35C1032.17 433.43 1029.38 432.47 1025.84 432.47C1023.38 432.47 1021.16 433.16 1019.18 434.54C1017.26 435.92 1015.76 437.75 1014.68 440.03C1013.6 442.25 1013.06 444.59 1013.06 447.05V472.88H1005.41V426.98Z" fill="black"/>
<path d="M954.964 426.98H962.254V433.73H962.614C963.874 431.45 965.884 429.53 968.644 427.97C971.404 426.35 974.344 425.54 977.464 425.54C982.984 425.54 987.184 427.16 990.064 430.4C993.004 433.58 994.474 437.93 994.474 443.45V472.88H986.824V444.62C986.824 440.36 985.804 437.27 983.764 435.35C981.724 433.43 978.934 432.47 975.394 432.47C972.934 432.47 970.714 433.16 968.734 434.54C966.814 435.92 965.314 437.75 964.234 440.03C963.154 442.25 962.614 444.59 962.614 447.05V472.88H954.964V426.98Z" fill="black"/>
<path d="M924.681 474.32C920.301 474.32 916.371 473.27 912.891 471.17C909.411 469.07 906.681 466.19 904.701 462.53C902.781 458.81 901.821 454.64 901.821 450.02C901.821 445.58 902.721 441.5 904.521 437.78C906.381 434.06 908.991 431.09 912.351 428.87C915.711 426.65 919.611 425.54 924.051 425.54C928.551 425.54 932.451 426.56 935.751 428.6C939.051 430.58 941.571 433.34 943.311 436.88C945.111 440.42 946.011 444.47 946.011 449.03C946.011 449.93 945.921 450.71 945.741 451.37H909.471C909.651 454.85 910.491 457.79 911.991 460.19C913.491 462.59 915.381 464.39 917.661 465.59C920.001 466.79 922.431 467.39 924.951 467.39C930.831 467.39 935.361 464.63 938.541 459.11L945.021 462.26C943.041 465.98 940.341 468.92 936.921 471.08C933.561 473.24 929.481 474.32 924.681 474.32ZM937.911 445.07C937.791 443.15 937.251 441.23 936.291 439.31C935.331 437.39 933.801 435.77 931.701 434.45C929.661 433.13 927.081 432.47 923.961 432.47C920.361 432.47 917.301 433.64 914.781 435.98C912.321 438.26 910.701 441.29 909.921 445.07H937.911Z" fill="black"/>
<path d="M853.45 408.44H861.1V427.43L860.74 433.73H861.1C862.36 431.39 864.34 429.44 867.04 427.88C869.8 426.32 872.8 425.54 876.04 425.54C881.62 425.54 885.88 427.19 888.82 430.49C891.76 433.73 893.23 438.05 893.23 443.45V472.88H885.58V444.62C885.58 440.48 884.53 437.42 882.43 435.44C880.33 433.46 877.6 432.47 874.24 432.47C871.84 432.47 869.62 433.19 867.58 434.63C865.6 436.07 864.01 437.93 862.81 440.21C861.67 442.49 861.1 444.86 861.1 447.32V472.88H853.45V408.44Z" fill="black"/>
<path d="M819.39 474.32C813.15 474.32 807.48 472.85 802.38 469.91C797.28 466.97 793.26 462.95 790.32 457.85C787.44 452.69 786 446.96 786 440.66C786 434.36 787.44 428.66 790.32 423.56C793.26 418.4 797.28 414.35 802.38 411.41C807.48 408.47 813.15 407 819.39 407C824.19 407 828.57 407.93 832.53 409.79C836.55 411.59 840.03 414.17 842.97 417.53L837.48 422.84C835.02 419.9 832.32 417.74 829.38 416.36C826.5 414.98 823.17 414.29 819.39 414.29C814.71 414.29 810.42 415.4 806.52 417.62C802.62 419.78 799.5 422.87 797.16 426.89C794.88 430.85 793.74 435.44 793.74 440.66C793.74 445.88 794.88 450.5 797.16 454.52C799.5 458.48 802.62 461.57 806.52 463.79C810.42 465.95 814.71 467.03 819.39 467.03C827.19 467.03 833.82 463.82 839.28 457.4L844.86 462.8C841.86 466.34 838.17 469.16 833.79 471.26C829.41 473.3 824.61 474.32 819.39 474.32Z" fill="black"/>
</svg>
