<svg width="400" height="135" viewBox="0 0 191 32" fill="none" xmlns="http://www.w3.org/2000/svg">
<path d="M134.059 21.365C134.059 21.069 134.19 20.7882 134.417 20.5982L157.383 1.3744C158.033 0.82952 159.024 1.29233 159.024 2.1412V10.635C159.024 10.931 158.893 11.2118 158.666 11.4018L135.701 30.6256C135.05 31.1705 134.059 30.7077 134.059 29.8588V21.365Z" fill="#8DCAFF"/>
<path d="M150.047 21.365C150.047 21.069 150.178 20.7882 150.405 20.5982L173.37 1.3744C174.021 0.82952 175.012 1.29233 175.012 2.1412V10.635C175.012 10.931 174.881 11.2118 174.654 11.4018L151.689 30.6256C151.038 31.1705 150.047 30.7077 150.047 29.8588V21.365Z" fill="#4C96D7"/>
<path d="M166.035 21.365C166.035 21.069 166.166 20.7882 166.393 20.5982L189.358 1.3744C190.009 0.82952 191 1.29233 191 2.1412V10.635C191 10.931 190.869 11.2118 190.642 11.4018L167.677 30.6256C167.026 31.1705 166.035 30.7077 166.035 29.8588V21.365Z" fill="#1761A0"/>
<path d="M6.496 22.776H15.936V27H2.08V4.6H15.776V8.824H6.496V13.592H14.976V17.752H6.496V22.776ZM28.7448 11H33.2888L27.2088 27H22.5048L16.4248 11H20.9688L24.8408 22.2L28.7448 11ZM47.6463 25.016C46.0036 26.6373 43.9983 27.448 41.6303 27.448C39.2623 27.448 37.2569 26.6373 35.6143 25.016C33.9929 23.3733 33.1823 21.368 33.1823 19C33.1823 16.632 33.9929 14.6373 35.6143 13.016C37.2569 11.3733 39.2623 10.552 41.6303 10.552C43.9983 10.552 46.0036 11.3733 47.6463 13.016C49.2889 14.6373 50.1103 16.632 50.1103 19C50.1103 21.368 49.2889 23.3733 47.6463 25.016ZM38.5263 22.168C39.3583 23 40.3929 23.416 41.6303 23.416C42.8676 23.416 43.9023 23 44.7343 22.168C45.5663 21.336 45.9823 20.28 45.9823 19C45.9823 17.72 45.5663 16.664 44.7343 15.832C43.9023 15 42.8676 14.584 41.6303 14.584C40.3929 14.584 39.3583 15 38.5263 15.832C37.7156 16.664 37.3103 17.72 37.3103 19C37.3103 20.28 37.7156 21.336 38.5263 22.168ZM52.3743 27V3.64H56.5023V27H52.3743Z" fill="#2F5597"/>
<path d="M65.9445 27V6.072H57.8805V4.6H75.6405V6.072H67.5765V27H65.9445ZM82.9298 27.128C81.2444 27.128 79.7511 26.7653 78.4498 26.04C77.1698 25.3147 76.1564 24.312 75.4098 23.032C74.6844 21.752 74.3218 20.2907 74.3218 18.648C74.3218 16.984 74.6631 15.5227 75.3458 14.264C76.0498 12.984 77.0098 11.9813 78.2258 11.256C79.4418 10.5307 80.8071 10.168 82.3218 10.168C83.8364 10.168 85.1911 10.52 86.3858 11.224C87.6018 11.928 88.5511 12.92 89.2338 14.2C89.9378 15.4587 90.2898 16.92 90.2898 18.584C90.2898 18.648 90.2791 18.7227 90.2578 18.808C90.2578 18.872 90.2578 18.9467 90.2578 19.032H75.5058V17.784H89.3938L88.7538 18.392C88.7751 17.0907 88.4978 15.928 87.9218 14.904C87.3671 13.8587 86.6098 13.048 85.6498 12.472C84.6898 11.8747 83.5804 11.576 82.3218 11.576C81.0844 11.576 79.9751 11.8747 78.9938 12.472C78.0338 13.048 77.2764 13.8587 76.7218 14.904C76.1671 15.928 75.8898 17.1013 75.8898 18.424V18.712C75.8898 20.0773 76.1884 21.2933 76.7858 22.36C77.4044 23.4053 78.2471 24.2267 79.3138 24.824C80.3804 25.4 81.5964 25.688 82.9618 25.688C84.0284 25.688 85.0204 25.496 85.9378 25.112C86.8764 24.728 87.6658 24.1413 88.3058 23.352L89.2338 24.408C88.5084 25.304 87.5911 25.9867 86.4818 26.456C85.3938 26.904 84.2098 27.128 82.9298 27.128ZM100.583 27.128C98.9622 27.128 97.5115 26.7653 96.2315 26.04C94.9728 25.3147 93.9702 24.312 93.2235 23.032C92.4982 21.752 92.1355 20.2907 92.1355 18.648C92.1355 16.984 92.4982 15.512 93.2235 14.232C93.9702 12.952 94.9728 11.96 96.2315 11.256C97.5115 10.5307 98.9622 10.168 100.583 10.168C101.927 10.168 103.143 10.424 104.231 10.936C105.341 11.448 106.237 12.216 106.919 13.24L105.735 14.104C105.138 13.2507 104.391 12.6213 103.495 12.216C102.599 11.8107 101.629 11.608 100.583 11.608C99.2822 11.608 98.1088 11.9067 97.0635 12.504C96.0395 13.08 95.2288 13.9013 94.6315 14.968C94.0555 16.0133 93.7675 17.24 93.7675 18.648C93.7675 20.056 94.0555 21.2933 94.6315 22.36C95.2288 23.4053 96.0395 24.2267 97.0635 24.824C98.1088 25.4 99.2822 25.688 100.583 25.688C101.629 25.688 102.599 25.4853 103.495 25.08C104.391 24.6747 105.138 24.0453 105.735 23.192L106.919 24.056C106.237 25.08 105.341 25.848 104.231 26.36C103.143 26.872 101.927 27.128 100.583 27.128ZM118.308 10.168C119.674 10.168 120.858 10.4347 121.86 10.968C122.884 11.48 123.674 12.2693 124.228 13.336C124.804 14.3813 125.092 15.6827 125.092 17.24V27H123.492V17.368C123.492 15.4907 123.012 14.0613 122.052 13.08C121.114 12.0987 119.791 11.608 118.084 11.608C116.783 11.608 115.652 11.8747 114.692 12.408C113.732 12.9413 112.996 13.688 112.484 14.648C111.994 15.608 111.748 16.76 111.748 18.104V27H110.148V3.256H111.748V14.936L111.46 14.424C111.972 13.1013 112.815 12.0667 113.988 11.32C115.162 10.552 116.602 10.168 118.308 10.168Z" fill="#8D9AAB"/>
</svg>
