<svg width="400" height="135" viewBox="0 0 400 135" fill="none" xmlns="http://www.w3.org/2000/svg">
<path d="M21.1667 84.1897C10.4964 84.1897 1.52344 75.5216 1.52344 64.8805C1.52344 54.2394 10.4964 45.5713 21.1667 45.5713C27.0694 45.5713 31.2748 47.8785 34.4316 50.8972L30.7018 54.6168C28.4316 52.4929 25.3721 50.8541 21.1667 50.8541C13.3721 50.8541 7.2856 57.118 7.2856 64.8913C7.2856 72.6646 13.3829 78.9285 21.1667 78.9285C26.2153 78.9285 29.1018 76.9016 30.9397 75.0688C32.4532 73.5594 33.4478 71.3924 33.8153 68.4275H21.1667V63.1555H38.9721C39.1667 64.0935 39.2532 65.2255 39.2532 66.4546C39.2532 70.4113 38.1613 75.306 34.6694 78.7883C31.2748 82.303 26.9288 84.1897 21.1667 84.1897Z" fill="#4285F4"/>
<path d="M66.7887 71.7589C66.7887 78.9177 61.2752 84.1897 54.5076 84.1897C47.7401 84.1897 42.2266 78.9177 42.2266 71.7589C42.2266 64.557 47.7401 59.3281 54.5076 59.3281C61.2752 59.3281 66.7887 64.557 66.7887 71.7589ZM61.4049 71.7589C61.4049 67.2847 58.2049 64.2228 54.4968 64.2228C50.7887 64.2228 47.5887 67.2847 47.5887 71.7589C47.5887 76.19 50.7887 79.295 54.4968 79.295C58.2049 79.295 61.4049 76.19 61.4049 71.7589Z" fill="#EA4335"/>
<path d="M94.3239 71.7589C94.3239 78.9177 88.8104 84.1897 82.0428 84.1897C75.2752 84.1897 69.7617 78.9177 69.7617 71.7589C69.7617 64.557 75.2752 59.3281 82.0428 59.3281C88.8104 59.3281 94.3239 64.557 94.3239 71.7589ZM88.9509 71.7589C88.9509 67.2847 85.7509 64.2228 82.0428 64.2228C78.3347 64.2228 75.1347 67.2847 75.1347 71.7589C75.1347 76.19 78.3347 79.295 82.0428 79.295C85.7509 79.295 88.9509 76.19 88.9509 71.7589Z" fill="#FBBC04"/>
<path d="M121.179 60.0828V82.4C121.179 91.5856 115.752 95.3483 109.33 95.3483C103.287 95.3483 99.6547 91.2945 98.2817 88.0063L103.049 86.0333C103.903 88.0602 105.979 90.4536 109.33 90.4536C113.438 90.4536 115.99 87.9092 115.99 83.1547V81.365H115.795C114.563 82.8744 112.206 84.1897 109.233 84.1897C103.006 84.1897 97.2871 78.7775 97.2871 71.802C97.2871 64.7834 102.995 59.3281 109.233 59.3281C112.206 59.3281 114.563 60.6434 115.795 62.1097H115.99V60.0828H121.179V60.0828ZM116.368 71.802C116.368 67.4248 113.438 64.2228 109.709 64.2228C105.936 64.2228 102.768 67.4248 102.768 71.802C102.768 76.1361 105.936 79.2842 109.709 79.2842C113.438 79.295 116.368 76.1361 116.368 71.802Z" fill="#4285F4"/>
<path d="M130.778 46.8975H125.297V83.4351H130.778V46.8975Z" fill="#34A853"/>
<path d="M152.314 75.8558L156.562 78.6805C155.189 80.7073 151.892 84.1897 146.173 84.1897C139.092 84.1897 133.979 78.7236 133.979 71.7589C133.979 64.363 139.135 59.3281 145.557 59.3281C152.022 59.3281 155.189 64.46 156.227 67.2416L156.789 68.6539L140.119 75.5323C141.395 78.0228 143.373 79.295 146.162 79.295C148.962 79.295 150.897 77.9258 152.314 75.8558ZM139.233 71.3816L150.379 66.7672C149.762 65.2147 147.924 64.1258 145.751 64.1258C142.962 64.1366 139.092 66.5839 139.233 71.3816Z" fill="#EA4335"/>
<path d="M170.41 83.4351V49.3232H180.875C186.129 49.3232 190.334 50.9081 193.491 54.067C196.648 57.2259 198.226 61.3336 198.226 66.39C198.226 71.4464 196.648 75.5432 193.491 78.7129C190.334 81.8718 186.129 83.4567 180.875 83.4567H170.41V83.4351ZM174.81 79.2412H180.875C184.821 79.2412 187.956 78.1092 190.27 75.8559C192.583 73.6026 193.74 70.4437 193.74 66.3684C193.74 62.3362 192.583 59.1773 190.27 56.9132C187.956 54.6384 184.832 53.5064 180.875 53.5064H174.81V79.2412ZM213.221 84.2006C209.686 84.2006 206.81 83.0254 204.594 80.6751C202.378 78.3248 201.275 75.3492 201.275 71.7698C201.275 68.3737 202.345 65.452 204.497 63.0046C206.648 60.5573 209.394 59.339 212.734 59.339C216.205 59.339 218.983 60.4711 221.07 62.7243C223.156 64.9776 224.205 67.9964 224.205 71.7806L224.151 72.5892H205.653C205.783 74.9395 206.572 76.8046 208.021 78.1631C209.47 79.5323 211.167 80.2115 213.113 80.2115C216.27 80.2115 218.399 78.8746 219.513 76.2117L223.426 77.8289C222.659 79.6401 221.405 81.1603 219.653 82.3786C217.924 83.5861 215.772 84.2006 213.221 84.2006ZM219.524 68.9559C219.426 67.619 218.81 66.3468 217.686 65.1393C216.551 63.9318 214.875 63.3281 212.648 63.3281C211.026 63.3281 209.61 63.8348 208.421 64.8482C207.221 65.8617 206.399 67.2309 205.956 68.9451H219.524V68.9559ZM234.097 83.4351L224.637 60.0829H229.416L236.291 78.1846H236.389L243.361 60.0829H248.043L238.486 83.4351H234.097ZM260.356 84.2006C256.821 84.2006 253.945 83.0254 251.729 80.6751C249.513 78.3248 248.41 75.3492 248.41 71.7698C248.41 68.3737 249.48 65.452 251.632 63.0046C253.783 60.5573 256.529 59.339 259.87 59.339C263.34 59.339 266.118 60.4711 268.205 62.7243C270.291 64.9776 271.329 67.9964 271.329 71.7806L271.286 72.5892H252.789C252.918 74.9395 253.707 76.8046 255.156 78.1631C256.605 79.5323 258.302 80.2115 260.248 80.2115C263.405 80.2115 265.534 78.8746 266.648 76.2117L270.561 77.8289C269.794 79.6401 268.54 81.1603 266.789 82.3786C265.059 83.5861 262.907 84.2006 260.356 84.2006ZM266.659 68.9559C266.561 67.619 265.945 66.3468 264.821 65.1393C263.686 63.9318 262.01 63.3281 259.783 63.3281C258.161 63.3281 256.745 63.8348 255.556 64.8482C254.356 65.8617 253.545 67.2309 253.091 68.9451H266.659V68.9559ZM279.48 83.4351H275.091V49.3232H279.48V83.4351ZM286.659 62.8753C288.918 60.5142 291.805 59.3282 295.307 59.3282C298.81 59.3282 301.697 60.5142 303.956 62.8753C306.216 65.2471 307.351 68.2012 307.351 71.759C307.351 75.3168 306.216 78.2817 303.956 80.6428C301.697 83.0146 298.81 84.1898 295.307 84.1898C291.805 84.1898 288.918 83.0039 286.659 80.6428C284.399 78.2817 283.264 75.3168 283.264 71.759C283.264 68.212 284.399 65.2471 286.659 62.8753ZM289.934 77.8828C291.448 79.4245 293.243 80.19 295.307 80.19C297.383 80.19 299.167 79.4245 300.68 77.8828C302.194 76.3411 302.951 74.3034 302.951 71.759C302.951 69.2146 302.194 67.177 300.68 65.6353C299.167 64.0936 297.372 63.3281 295.307 63.3281C293.232 63.3281 291.448 64.1043 289.934 65.6353C288.421 67.177 287.664 69.2146 287.664 71.759C287.664 74.3034 288.421 76.3518 289.934 77.8828ZM323.361 84.2006C321.578 84.2006 319.978 83.8232 318.561 83.0578C317.145 82.2923 316.086 81.3436 315.383 80.2007H315.188L315.383 83.4459V93.742H310.983V60.1045H315.188V63.3389H315.383C316.086 62.1961 317.145 61.2473 318.561 60.4818C319.978 59.7164 321.578 59.339 323.361 59.339C326.388 59.339 329.005 60.525 331.199 62.9076C333.394 65.2903 334.497 68.2443 334.497 71.7698C334.497 75.2953 333.394 78.2493 331.199 80.632C329.005 83.0146 326.388 84.2006 323.361 84.2006ZM322.648 80.2007C324.68 80.2007 326.443 79.4353 327.902 77.8936C329.361 76.3518 330.097 74.3142 330.097 71.7698C330.097 69.2254 329.361 67.1878 327.902 65.6461C326.443 64.1043 324.68 63.3389 322.648 63.3389C320.572 63.3389 318.821 64.1043 317.372 65.6245C315.924 67.1446 315.199 69.1931 315.199 71.7698C315.199 74.3465 315.924 76.395 317.372 77.9151C318.821 79.4353 320.583 80.2007 322.648 80.2007ZM348.972 84.2006C345.437 84.2006 342.561 83.0254 340.345 80.6751C338.129 78.3248 337.026 75.3492 337.026 71.7698C337.026 68.3737 338.097 65.452 340.248 63.0046C342.399 60.5573 345.145 59.339 348.486 59.339C351.956 59.339 354.734 60.4711 356.821 62.7243C358.907 64.9776 359.956 67.9964 359.956 71.7806L359.902 72.5892H341.405C341.534 74.9395 342.324 76.8046 343.772 78.1631C345.221 79.5323 346.918 80.2115 348.864 80.2115C352.021 80.2115 354.151 78.8746 355.264 76.2117L359.178 77.8289C358.41 79.6401 357.156 81.1603 355.405 82.3786C353.664 83.5861 351.513 84.2006 348.972 84.2006ZM355.275 68.9559C355.178 67.619 354.561 66.3468 353.437 65.1393C352.302 63.9318 350.626 63.3281 348.399 63.3281C346.778 63.3281 345.361 63.8348 344.172 64.8482C342.972 65.8617 342.151 67.2309 341.707 68.9451H355.275V68.9559ZM368.032 83.4351H363.632V60.0937H367.837V63.9103H368.032C368.475 62.6381 369.394 61.5923 370.778 60.7621C372.161 59.932 373.513 59.5223 374.81 59.5223C376.118 59.5223 377.221 59.7164 378.107 60.0937L376.432 64.1906C375.859 63.9642 375.08 63.8564 374.086 63.8564C372.497 63.8564 371.08 64.4817 369.859 65.7431C368.626 67.0045 368.021 68.6432 368.021 70.6809V83.4351H368.032ZM388.994 84.2006C386.378 84.2006 384.226 83.5645 382.518 82.2923C380.81 81.0201 379.567 79.4353 378.767 77.527L382.691 75.9098C383.934 78.8315 386.053 80.2978 389.048 80.2978C390.421 80.2978 391.545 79.9959 392.421 79.3921C393.297 78.7884 393.729 77.9906 393.729 77.0095C393.729 75.4893 392.659 74.4543 390.529 73.9153L385.805 72.7725C384.302 72.3951 382.886 71.6728 381.556 70.6054C380.216 69.5381 379.545 68.1042 379.545 66.2929C379.545 64.2337 380.464 62.5518 382.291 61.2689C384.118 59.9859 386.291 59.339 388.81 59.339C390.886 59.339 392.734 59.8134 394.356 60.7406C395.978 61.6786 397.145 63.0154 397.848 64.7728L394.021 66.3468C393.156 64.2768 391.372 63.2526 388.67 63.2526C387.361 63.2526 386.259 63.5221 385.372 64.0612C384.475 64.6003 384.032 65.3334 384.032 66.2498C384.032 67.5867 385.07 68.4923 387.134 68.9667L391.772 70.0664C393.967 70.5731 395.599 71.4464 396.648 72.6862C397.697 73.9261 398.226 75.3276 398.226 76.8801C398.226 78.9717 397.361 80.729 395.643 82.1198C393.913 83.4998 391.697 84.2006 388.994 84.2006Z" fill="#5F6368"/>
</svg>
