<svg width="400" height="135" viewBox="0 0 400 135" fill="none" xmlns="http://www.w3.org/2000/svg">
<g clip-path="url(#clip0_135_71)">
<path d="M193.732 63.2014L165.477 39.2848C164.322 38.319 162.97 37.6191 161.515 37.235C160.06 36.8509 158.538 36.7919 157.057 37.0622C155.577 37.3325 154.174 37.9255 152.949 38.7991C151.723 39.6727 150.705 40.8053 149.967 42.1167C149.228 43.4281 148.788 44.8859 148.677 46.3867C148.565 47.8875 148.786 49.3944 149.322 50.8004C149.859 52.2064 150.698 53.477 151.782 54.522C152.865 55.5669 154.164 56.3605 155.589 56.8464H155.691L155.958 56.9284L191.6 67.7866C191.859 67.8801 192.132 67.9286 192.407 67.9301C192.961 67.9272 193.499 67.7438 193.94 67.4076C194.38 67.0714 194.699 66.6008 194.848 66.067C194.997 65.5332 194.968 64.9654 194.766 64.4495C194.563 63.9337 194.198 63.4979 193.726 63.2083L193.732 63.2014Z" fill="url(#paint0_linear_135_71)"/>
<path d="M199.397 23.7184C199.405 22.3733 199.049 21.0511 198.365 19.8926C197.682 18.734 196.697 17.7823 195.516 17.1388C194.335 16.4953 193.001 16.1839 191.657 16.2379C190.313 16.2919 189.009 16.7092 187.883 17.4454L153.375 38.3964C152.201 39.1612 151.197 40.1583 150.424 41.3262C149.651 42.4942 149.126 43.8081 148.88 45.187C148.635 46.5659 148.675 47.9805 148.997 49.3435C149.32 50.7064 149.918 51.9888 150.755 53.1115C151.593 54.2342 152.651 55.1734 153.866 55.8711C155.08 56.5688 156.425 57.0102 157.816 57.1681C159.208 57.326 160.617 57.197 161.957 56.7891C163.297 56.3812 164.539 55.703 165.606 54.7964L196.541 29.5883L196.787 29.3833C197.605 28.6829 198.261 27.8141 198.712 26.8364C199.162 25.8586 199.396 24.795 199.397 23.7184Z" fill="url(#paint1_linear_135_71)"/>
<path d="M249.582 68.8666L197.225 18.4435C196.516 17.732 195.671 17.1711 194.74 16.7945C193.808 16.4179 192.811 16.2333 191.807 16.2518C190.803 16.2702 189.812 16.4914 188.896 16.9021C187.979 17.3127 187.155 17.9044 186.473 18.6414C185.791 19.3785 185.264 20.2459 184.926 21.1914C184.587 22.1369 184.443 23.1411 184.502 24.1438C184.561 25.1464 184.822 26.1268 185.269 27.026C185.716 27.9253 186.341 28.7249 187.105 29.3768L187.2 29.4588L242.824 76.3218C243.558 76.9374 244.452 77.3307 245.402 77.4552C246.352 77.5798 247.317 77.4305 248.185 77.0249C249.053 76.6194 249.787 75.9744 250.301 75.1659C250.815 74.3573 251.087 73.4189 251.085 72.461C251.085 71.7922 250.952 71.13 250.694 70.513C250.436 69.896 250.058 69.3364 249.582 68.8666Z" fill="url(#paint2_linear_135_71)"/>
<path d="M251.091 72.4816C251.098 71.5522 250.847 70.6392 250.366 69.8441C249.885 69.0491 249.192 68.4031 248.366 67.9782C247.539 67.5532 246.611 67.3659 245.684 67.4371C244.758 67.5084 243.869 67.8353 243.117 68.3816L179.765 99.3366C178.502 99.9713 177.384 100.86 176.481 101.948C175.578 103.036 174.909 104.299 174.518 105.657C174.127 107.016 174.02 108.44 174.206 109.842C174.392 111.243 174.865 112.591 175.597 113.801C176.329 115.01 177.303 116.055 178.458 116.87C179.613 117.685 180.924 118.253 182.309 118.537C183.694 118.82 185.123 118.815 186.505 118.52C187.888 118.225 189.195 117.647 190.343 116.823L248.925 76.6157C249.594 76.1534 250.14 75.5357 250.518 74.8156C250.895 74.0955 251.092 73.2945 251.091 72.4816Z" fill="url(#paint3_linear_135_71)"/>
<path d="M179 47H220V88H179V47Z" fill="black"/>
<path d="M183.462 80.3125H198.837V82.875H183.462V80.3125Z" fill="white"/>
<path d="M182.82 57.5712L183.961 56.4915C184.07 56.6629 184.217 56.8061 184.392 56.9094C184.566 57.0128 184.763 57.0733 184.965 57.086C185.403 57.086 185.69 56.7785 185.69 56.184V52.1387H187.453V56.1977C187.479 56.5245 187.437 56.8532 187.329 57.1628C187.22 57.4723 187.048 57.7557 186.824 57.9948C186.593 58.2211 186.318 58.3982 186.016 58.5156C185.714 58.6331 185.392 58.6883 185.068 58.6782C184.631 58.6958 184.196 58.6037 183.803 58.4104C183.411 58.217 183.073 57.9286 182.82 57.5712Z" fill="white"/>
<path d="M188.246 52.1387H193.391V53.6352H189.974V54.6123H193.043V55.979H190.002V56.9972H193.418V58.5005H188.225L188.246 52.1387Z" fill="white"/>
<path d="M195.899 53.6898H193.986V52.1387H199.596V53.6898H197.676V58.5347H195.899V53.6898Z" fill="white"/>
<path d="M183.531 61.0627H186.551C186.865 61.0369 187.18 61.0737 187.479 61.1711C187.779 61.2685 188.055 61.4244 188.294 61.6298C188.429 61.766 188.536 61.9282 188.608 62.1066C188.68 62.2851 188.714 62.4762 188.71 62.6685C188.716 62.9803 188.623 63.2859 188.445 63.5421C188.267 63.7983 188.013 63.9923 187.72 64.0967C188.083 64.1633 188.411 64.3576 188.644 64.6445C188.877 64.9313 189 65.292 188.991 65.6615C188.991 66.8163 188.095 67.4997 186.565 67.4997H183.531V61.0627ZM186.947 63.0375C186.947 62.6822 186.66 62.4908 186.141 62.4908H185.26V63.6115H186.114C186.647 63.6115 186.961 63.427 186.961 63.058L186.947 63.0375ZM186.332 64.8552H185.26V66.0373H186.367C186.913 66.0373 187.214 65.8255 187.214 65.4497C187.2 65.0875 186.941 64.8552 186.346 64.8552H186.332Z" fill="white"/>
<path d="M189.558 61.063H192.393C192.769 61.0325 193.147 61.0772 193.504 61.1945C193.862 61.3119 194.193 61.4995 194.478 61.7464C194.669 61.9424 194.819 62.1758 194.916 62.4321C195.014 62.6884 195.058 62.9621 195.045 63.236C195.057 63.6614 194.937 64.08 194.7 64.4339C194.464 64.7877 194.124 65.0593 193.726 65.2109L195.257 67.5H193.207L191.915 65.5594H191.321V67.5H189.544L189.558 61.063ZM192.291 64.138C192.885 64.138 193.248 63.8442 193.248 63.3727C193.248 62.8602 192.872 62.6005 192.284 62.6005H191.334V64.1517L192.291 64.138Z" fill="white"/>
<path d="M197.512 61.0151H199.22L201.954 67.4658H200.047L199.589 66.311H197.109L196.651 67.5H194.799L197.512 61.0151ZM199.07 64.9306L198.353 63.1198L197.628 64.9306H199.07Z" fill="white"/>
<path d="M202.233 61.0425H204.01V67.4453H202.233V61.0425Z" fill="white"/>
<path d="M204.667 61.0425H206.334L208.637 64.4591V61.0425H210.393V67.4453H208.842L206.43 63.933V67.4453H204.667V61.0425Z" fill="white"/>
<path d="M210.687 66.4958L211.671 65.3137C212.247 65.7955 212.97 66.0677 213.721 66.0858C214.206 66.0858 214.459 65.915 214.459 65.6417C214.459 65.3615 214.254 65.2248 213.372 65.0198C212.005 64.7055 210.96 64.3365 210.96 63.0177C210.96 61.8287 211.903 60.9677 213.44 60.9677C214.391 60.9321 215.323 61.2347 216.071 61.8218L215.217 63.0382C214.7 62.6476 214.074 62.4278 213.427 62.4095C212.996 62.4095 212.784 62.5803 212.784 62.8195C212.784 63.1133 213.003 63.2432 213.898 63.4413C215.367 63.7625 216.276 64.2408 216.276 65.4367C216.276 66.7418 215.244 67.4867 213.693 67.4867C212.604 67.533 211.535 67.1808 210.687 66.4958Z" fill="white"/>
</g>
<defs>
<linearGradient id="paint0_linear_135_71" x1="160.304" y1="47.7923" x2="194.559" y2="64.4519" gradientUnits="userSpaceOnUse">
<stop offset="0.21" stop-color="#FE2857"/>
<stop offset="1" stop-color="#293896"/>
</linearGradient>
<linearGradient id="paint1_linear_135_71" x1="149.876" y1="53.7372" x2="194.682" y2="20.5067" gradientUnits="userSpaceOnUse">
<stop stop-color="#FE2857"/>
<stop offset="0.01" stop-color="#FE2857"/>
<stop offset="0.86" stop-color="#FF318C"/>
</linearGradient>
<linearGradient id="paint2_linear_135_71" x1="188.683" y1="20.7463" x2="247.518" y2="74.1693" gradientUnits="userSpaceOnUse">
<stop offset="0.02" stop-color="#FF318C"/>
<stop offset="0.21" stop-color="#FE2857"/>
<stop offset="0.86" stop-color="#FDB60D"/>
</linearGradient>
<linearGradient id="paint3_linear_135_71" x1="244.231" y1="67.3634" x2="175.631" y2="114.582" gradientUnits="userSpaceOnUse">
<stop offset="0.01" stop-color="#FDB60D"/>
<stop offset="0.86" stop-color="#FCF84A"/>
</linearGradient>
<clipPath id="clip0_135_71">
<rect width="123" height="123" fill="white" transform="translate(138 6)"/>
</clipPath>
</defs>
</svg>
