<svg width="400" height="135" viewBox="0 0 400 135" fill="none" xmlns="http://www.w3.org/2000/svg">
<g clip-path="url(#clip0_135_72)">
<path d="M145.377 90.633L126.255 71.577L123.081 74.7536V81.6575H114.942V45.4858H123.081V63.2402L140.857 45.4858L146.613 51.2416L131.991 65.8212L151.135 84.8772L145.377 90.633Z" fill="#572148"/>
<path d="M176.895 63.5718C176.895 60.8372 175.918 58.4996 173.962 56.5592C172.022 54.6038 169.682 53.626 166.95 53.626C164.185 53.626 161.832 54.5981 159.892 56.5386C157.967 58.464 157.004 60.8109 157.004 63.5755C157.004 66.3551 157.967 68.7057 159.892 70.633C161.817 72.5585 164.172 73.5231 166.95 73.5231C169.714 73.5231 172.059 72.5604 173.986 70.633C175.925 68.687 176.895 66.3345 176.895 63.5718ZM185.034 63.5718C185.034 68.5858 183.269 72.8582 179.74 76.3869C176.184 79.9007 171.919 81.6595 166.95 81.6595C161.92 81.6595 157.65 79.9007 154.134 76.3869C150.621 72.8732 148.862 68.6008 148.862 63.5718C148.862 58.6027 150.621 54.3378 154.134 50.7809C157.663 47.2522 161.934 45.4878 166.95 45.4878C171.889 45.4878 176.14 47.2672 179.697 50.8259C183.254 54.3809 185.034 58.6289 185.034 63.5718Z" fill="#572148"/>
<path d="M210.794 81.6556L195.42 60.3501V81.6556H187.282V45.4858H195.42L210.794 66.7689V45.4858H218.954V81.6556H210.794Z" fill="#572148"/>
<path d="M231.592 53.6241V59.4923H246.061V67.6305H231.592V81.6575H223.454V45.4858H250.582V53.6241H231.592Z" fill="#572148"/>
<path d="M276.828 81.6556V67.6286H261.458V81.6556H253.319V45.4858H261.458V59.4923H276.828V45.4858H284.988V81.6556H276.828Z" fill="#572148"/>
<path d="M320.012 65.8193C320.012 70.2303 318.476 73.9725 315.403 77.0462C312.329 80.1198 308.594 81.6556 304.198 81.6556C299.787 81.6556 296.045 80.1198 292.971 77.0462C289.898 73.9725 288.362 70.2303 288.362 65.8193V45.4858H296.5V65.8193C296.5 67.9508 297.249 69.7676 298.75 71.2679C300.25 72.7682 302.067 73.5174 304.198 73.5174C306.33 73.5174 308.141 72.7682 309.624 71.2679C311.125 69.7676 311.874 67.9508 311.874 65.8193V45.4858H320.012V65.8193Z" fill="#572148"/>
<path d="M346.875 70.5843C346.875 69.7751 346.581 69.084 345.993 68.5108C345.419 67.9227 344.734 67.6286 343.942 67.6286H331.548V73.5174H343.942C344.751 73.5174 345.442 73.2308 346.015 72.6577C346.59 72.0827 346.875 71.3915 346.875 70.5843ZM345.97 56.5554C345.97 55.7912 345.691 55.1075 345.131 54.5044C344.588 53.9163 343.912 53.6222 343.101 53.6222H331.546V59.4904H343.035C343.844 59.4904 344.535 59.2038 345.109 58.6307C345.684 58.0575 345.97 57.3664 345.97 56.5554ZM355.08 71.577C355.08 74.4146 353.927 76.8251 351.619 78.8105C349.413 80.7079 346.871 81.6556 343.987 81.6556H323.41V45.4858H343.037C345.875 45.4858 348.411 46.4111 350.647 48.2654C353.016 50.2058 354.198 52.5658 354.198 55.3454C354.198 58.5501 352.874 61.1087 350.227 63.021C353.464 64.9746 355.08 67.8272 355.08 71.577Z" fill="#572148"/>
<path d="M49.8347 81.4236C42.1404 73.7292 42.1404 61.2549 49.8347 53.5587L78.3196 25.0776L82.3447 29.1027C80.2937 31.1537 80.2937 34.482 82.3447 36.533C84.3956 38.584 87.724 38.584 89.7749 36.533L93.8 40.5581L68.4806 65.8719L54.1221 54.75L66.8604 67.4883L51.3818 82.9669L49.8347 81.4236Z" fill="#572148"/>
<path d="M66.8624 98.4523L49.8367 81.4266C42.1423 73.7323 42.1423 61.258 49.8367 53.5618L51.3838 52.0146L82.3691 83C82.3035 83.0299 82.2417 83.073 82.1874 83.1273L81.4232 83.8952C81.1666 84.1519 81.1666 84.5677 81.4232 84.8224C81.6798 85.079 82.0956 85.079 82.3504 84.8224L83.1183 84.0545C83.1726 84.0001 83.2157 83.9402 83.2457 83.8728L93.7982 94.4253L89.7731 98.4505C87.7222 96.3995 84.3938 96.3995 82.3429 98.4505C80.2919 100.501 80.2919 103.83 82.3429 105.881L78.3178 109.904L67.7914 99.3776L68.5556 98.6134C68.8122 98.3568 68.8122 97.941 68.5556 97.6863C68.299 97.4297 67.8832 97.4297 67.6285 97.6863L66.8624 98.4523ZM69.1606 96.1523C68.904 96.4089 68.904 96.8247 69.1606 97.0794C69.4172 97.336 69.833 97.336 70.0877 97.0794L71.6199 95.5473C71.8765 95.2907 71.8765 94.8749 71.6199 94.6201C71.3633 94.3635 70.9474 94.3635 70.6927 94.6201L69.1606 96.1523ZM72.2248 93.088C71.9682 93.3446 71.9682 93.7604 72.2248 94.0152C72.4814 94.2718 72.8973 94.2718 73.152 94.0152L74.6841 92.483C74.9407 92.2264 74.9407 91.8106 74.6841 91.5559C74.4275 91.2993 74.0117 91.2993 73.757 91.5559L72.2248 93.088ZM75.2891 90.0238C75.0325 90.2804 75.0325 90.6962 75.2891 90.9509C75.5457 91.2075 75.9615 91.2075 76.2162 90.9509L77.7484 89.4188C78.005 89.1622 78.005 88.7464 77.7484 88.4916C77.4918 88.235 77.076 88.235 76.8212 88.4916L75.2891 90.0238ZM78.3552 86.9576C78.0986 87.2142 78.0986 87.63 78.3552 87.8848C78.6118 88.1414 79.0276 88.1414 79.2824 87.8848L80.8145 86.3526C81.0711 86.096 81.0711 85.6802 80.8145 85.4255C80.5579 85.1689 80.1421 85.1689 79.8873 85.4255L78.3552 86.9576Z" fill="#572148"/>
</g>
<defs>
<clipPath id="clip0_135_72">
<rect width="354" height="93.6508" fill="white" transform="translate(23 20)"/>
</clipPath>
</defs>
</svg>
