<svg width="400" height="135" viewBox="0 0 400 135" fill="none" xmlns="http://www.w3.org/2000/svg">
<path d="M183.856 73.7092H167.059V18.9146H183.856V73.7092Z" fill="#4285F4"/>
<path d="M234.208 73.7092H217.313V18.9146H234.208V73.7092Z" fill="#00BFA5"/>
<path d="M217.414 73.7092H234.208L209.082 27.216H192.288L217.414 73.7092Z" fill="#1CE9B6"/>
<path d="M183.854 73.7092H167.059L192.185 27.216H208.98L183.854 73.7092Z" fill="#4FC3F7"/>
<path d="M157.185 82.0254V10.7944H175.567V0H150.661C149.538 0.00336975 148.462 0.453095 147.668 1.25096C146.874 2.04882 146.426 3.12998 146.423 4.25832V87.9189C146.423 90.262 148.33 92.6258 150.661 92.6258H175.567V82.0254H157.185Z" fill="#4285F4"/>
<path d="M244.085 82.0254V10.7945H225.699V2.02361e-05H250.607C251.73 0.00338999 252.806 0.453115 253.6 1.25098C254.394 2.04884 254.842 3.13 254.845 4.25834V87.9189C254.845 90.262 252.938 92.6258 250.607 92.6258H225.699V82.0254H244.085Z" fill="#00BFA5"/>
<path d="M178.407 135C177.395 135 176.471 134.761 175.634 134.284C174.797 133.807 174.141 133.15 173.664 132.313C173.187 131.476 172.949 130.551 172.949 129.538C172.949 128.526 173.187 127.601 173.664 126.764C174.141 125.927 174.797 125.269 175.634 124.792C176.471 124.315 177.395 124.077 178.407 124.077C179.195 124.077 179.911 124.223 180.553 124.515C181.205 124.807 181.779 125.23 182.275 125.785L181.107 126.91C180.747 126.481 180.348 126.165 179.911 125.961C179.473 125.746 178.972 125.639 178.407 125.639C177.707 125.639 177.065 125.8 176.481 126.121C175.907 126.443 175.449 126.9 175.109 127.494C174.768 128.078 174.598 128.76 174.598 129.538C174.598 130.317 174.768 131.004 175.109 131.597C175.449 132.182 175.907 132.634 176.481 132.956C177.065 133.277 177.707 133.437 178.407 133.437C179.575 133.437 180.567 132.951 181.385 131.977L182.567 133.116C182.061 133.71 181.453 134.172 180.742 134.503C180.032 134.834 179.254 135 178.407 135Z" fill="#5D5D5D"/>
<path d="M183.987 124.31H185.592V127.158L185.519 128.297H185.592C185.806 127.947 186.122 127.659 186.541 127.436C186.969 127.202 187.426 127.085 187.913 127.085C188.818 127.085 189.509 127.353 189.985 127.888C190.462 128.414 190.7 129.134 190.7 130.05V134.766H189.095V130.269C189.095 129.704 188.944 129.28 188.643 128.998C188.351 128.716 187.966 128.575 187.49 128.575C187.13 128.575 186.804 128.677 186.512 128.881C186.229 129.086 186.006 129.358 185.84 129.699C185.675 130.03 185.592 130.385 185.592 130.765V134.766H183.987V124.31Z" fill="#5D5D5D"/>
<path d="M195.925 135C195.195 135 194.538 134.83 193.955 134.489C193.381 134.148 192.928 133.681 192.597 133.087C192.276 132.483 192.116 131.807 192.116 131.057C192.116 130.346 192.271 129.689 192.583 129.086C192.904 128.472 193.346 127.986 193.911 127.625C194.475 127.265 195.117 127.085 195.837 127.085C196.587 127.085 197.234 127.251 197.779 127.582C198.333 127.913 198.752 128.365 199.034 128.94C199.326 129.514 199.472 130.161 199.472 130.882C199.472 131.018 199.457 131.189 199.428 131.393H193.721C193.779 132.084 194.023 132.62 194.451 132.999C194.889 133.369 195.395 133.554 195.969 133.554C196.426 133.554 196.82 133.452 197.151 133.248C197.491 133.033 197.764 132.746 197.968 132.386L199.326 133.029C198.975 133.642 198.518 134.124 197.954 134.474C197.389 134.825 196.713 135 195.925 135ZM197.837 130.166C197.817 129.903 197.735 129.646 197.589 129.392C197.443 129.13 197.219 128.91 196.917 128.735C196.626 128.56 196.265 128.472 195.837 128.472C195.322 128.472 194.884 128.628 194.524 128.94C194.174 129.241 193.93 129.65 193.794 130.166H197.837Z" fill="#5D5D5D"/>
<path d="M200.934 127.319H202.466V128.297H202.539C202.753 127.947 203.069 127.659 203.488 127.436C203.916 127.202 204.368 127.085 204.845 127.085C205.75 127.085 206.436 127.353 206.903 127.888C207.38 128.414 207.618 129.134 207.618 130.05V134.766H206.013V130.269C206.013 129.684 205.867 129.256 205.575 128.983C205.293 128.711 204.899 128.575 204.393 128.575C204.033 128.575 203.712 128.677 203.429 128.881C203.147 129.076 202.928 129.339 202.773 129.67C202.617 130.001 202.539 130.356 202.539 130.736V134.766H200.934V127.319Z" fill="#5D5D5D"/>
<path d="M209.428 127.319H210.961V128.297H211.034C211.248 127.947 211.564 127.659 211.983 127.436C212.411 127.202 212.863 127.085 213.34 127.085C214.245 127.085 214.931 127.353 215.398 127.888C215.875 128.414 216.113 129.134 216.113 130.05V134.766H214.508V130.269C214.508 129.684 214.362 129.256 214.07 128.983C213.787 128.711 213.393 128.575 212.887 128.575C212.527 128.575 212.206 128.677 211.924 128.881C211.642 129.076 211.423 129.339 211.267 129.67C211.112 130.001 211.034 130.356 211.034 130.736V134.766H209.428V127.319Z" fill="#5D5D5D"/>
<path d="M220.187 135C219.652 135 219.175 134.898 218.757 134.693C218.338 134.479 218.013 134.182 217.779 133.803C217.545 133.413 217.429 132.975 217.429 132.488C217.429 131.719 217.716 131.111 218.29 130.663C218.874 130.215 219.608 129.991 220.494 129.991C220.932 129.991 221.326 130.035 221.676 130.123C222.026 130.2 222.303 130.288 222.508 130.385V130.006C222.508 129.548 222.338 129.178 221.997 128.896C221.656 128.604 221.219 128.458 220.683 128.458C220.304 128.458 219.944 128.541 219.603 128.706C219.273 128.872 219.005 129.1 218.801 129.392L217.677 128.531C218.008 128.073 218.436 127.718 218.961 127.465C219.487 127.212 220.07 127.085 220.713 127.085C221.793 127.085 222.625 127.353 223.208 127.888C223.792 128.414 224.084 129.159 224.084 130.123V134.766H222.508V133.876H222.435C222.221 134.197 221.919 134.465 221.53 134.679C221.141 134.893 220.693 135 220.187 135ZM220.464 133.671C220.854 133.671 221.204 133.579 221.515 133.394C221.827 133.209 222.07 132.96 222.245 132.649C222.42 132.337 222.508 132.001 222.508 131.641C222.284 131.515 222.021 131.412 221.72 131.335C221.428 131.257 221.121 131.218 220.8 131.218C220.197 131.218 219.754 131.339 219.472 131.583C219.19 131.817 219.049 132.123 219.049 132.503C219.049 132.844 219.18 133.126 219.443 133.35C219.706 133.564 220.046 133.671 220.464 133.671Z" fill="#5D5D5D"/>
<path d="M226.753 126.238C226.452 126.238 226.194 126.136 225.98 125.931C225.775 125.717 225.673 125.459 225.673 125.157C225.673 124.856 225.775 124.603 225.98 124.398C226.194 124.184 226.452 124.077 226.753 124.077C227.055 124.077 227.308 124.184 227.512 124.398C227.726 124.603 227.833 124.856 227.833 125.157C227.833 125.459 227.726 125.717 227.512 125.931C227.308 126.136 227.055 126.238 226.753 126.238ZM225.95 127.319H227.556V134.766H225.95V127.319Z" fill="#5D5D5D"/>
<path d="M113 101.296H115.346L117.429 109.951L117.654 111.115H117.766L118.067 109.951L120.75 101.296H122.852L125.404 109.951L125.704 111.097H125.817L126.042 109.951L128.125 101.296H130.47L126.924 114.739H124.691L122.139 105.877L121.857 104.675H121.745L121.426 105.877L118.761 114.739H116.584L113 101.296Z" fill="#5D5D5D"/>
<path d="M135.373 115.04C134.409 115.04 133.546 114.821 132.783 114.382C132.02 113.932 131.426 113.318 131 112.542C130.575 111.766 130.362 110.903 130.362 109.951C130.362 109 130.575 108.136 131 107.36C131.426 106.584 132.02 105.977 132.783 105.539C133.546 105.089 134.409 104.863 135.373 104.863C136.336 104.863 137.199 105.089 137.962 105.539C138.725 105.99 139.32 106.603 139.745 107.379C140.17 108.155 140.383 109.013 140.383 109.951C140.383 110.903 140.17 111.766 139.745 112.542C139.32 113.318 138.725 113.932 137.962 114.382C137.199 114.821 136.336 115.04 135.373 115.04ZM135.373 113.143C135.898 113.143 136.386 113.018 136.836 112.768C137.287 112.505 137.643 112.136 137.906 111.66C138.181 111.172 138.319 110.602 138.319 109.951C138.319 109.301 138.181 108.737 137.906 108.262C137.643 107.786 137.287 107.423 136.836 107.173C136.386 106.91 135.898 106.778 135.373 106.778C134.847 106.778 134.359 106.91 133.909 107.173C133.459 107.423 133.096 107.786 132.821 108.262C132.558 108.737 132.427 109.301 132.427 109.951C132.427 110.602 132.558 111.172 132.821 111.66C133.096 112.136 133.459 112.505 133.909 112.768C134.359 113.018 134.847 113.143 135.373 113.143Z" fill="#5D5D5D"/>
<path d="M142.103 105.164H144.073V106.422H144.167C144.455 105.958 144.861 105.583 145.387 105.295C145.912 105.007 146.475 104.863 147.076 104.863C147.764 104.863 148.364 105.026 148.877 105.351C149.39 105.664 149.759 106.084 149.984 106.609C150.31 106.084 150.741 105.664 151.279 105.351C151.83 105.026 152.474 104.863 153.212 104.863C154.313 104.863 155.145 105.201 155.708 105.877C156.283 106.541 156.571 107.448 156.571 108.6V114.739H154.507V108.956C154.507 107.504 153.888 106.778 152.649 106.778C151.986 106.778 151.442 107.047 151.016 107.586C150.591 108.124 150.378 108.787 150.378 109.576V114.739H148.314V108.956C148.314 107.504 147.676 106.778 146.4 106.778C145.75 106.778 145.212 107.047 144.786 107.586C144.374 108.124 144.167 108.787 144.167 109.576V114.739H142.103V105.164Z" fill="#5D5D5D"/>
<path d="M163.298 115.04C162.36 115.04 161.515 114.821 160.765 114.382C160.027 113.944 159.445 113.344 159.02 112.58C158.607 111.804 158.4 110.934 158.4 109.97C158.4 109.056 158.6 108.212 159.001 107.435C159.414 106.647 159.983 106.021 160.708 105.558C161.434 105.095 162.26 104.863 163.185 104.863C164.149 104.863 164.981 105.076 165.681 105.502C166.394 105.927 166.932 106.509 167.295 107.248C167.67 107.986 167.858 108.819 167.858 109.745C167.858 109.92 167.839 110.139 167.802 110.402H160.464C160.539 111.291 160.852 111.979 161.403 112.467C161.966 112.943 162.616 113.181 163.354 113.181C163.942 113.181 164.449 113.049 164.874 112.786C165.312 112.511 165.662 112.142 165.925 111.679L167.67 112.505C167.22 113.293 166.632 113.913 165.906 114.364C165.181 114.814 164.311 115.04 163.298 115.04ZM165.756 108.825C165.731 108.487 165.625 108.155 165.437 107.83C165.25 107.492 164.962 107.21 164.574 106.985C164.199 106.76 163.736 106.647 163.185 106.647C162.522 106.647 161.959 106.847 161.497 107.248C161.046 107.636 160.733 108.161 160.558 108.825H165.756Z" fill="#5D5D5D"/>
<path d="M169.738 105.164H171.708V106.422H171.802C172.077 105.971 172.484 105.602 173.022 105.314C173.572 105.013 174.154 104.863 174.767 104.863C175.93 104.863 176.812 105.207 177.413 105.896C178.026 106.572 178.332 107.498 178.332 108.675V114.739H176.268V108.956C176.268 108.205 176.08 107.655 175.705 107.304C175.342 106.954 174.836 106.778 174.185 106.778C173.722 106.778 173.309 106.91 172.946 107.173C172.584 107.423 172.302 107.761 172.102 108.186C171.902 108.612 171.802 109.069 171.802 109.557V114.739H169.738V105.164Z" fill="#5D5D5D"/>
<path d="M187.365 103.305H183.612V101.296H193.22V103.305H189.467V114.739H187.365V103.305Z" fill="#5D5D5D"/>
<path d="M197.786 115.04C196.848 115.04 196.004 114.821 195.253 114.382C194.515 113.944 193.933 113.344 193.508 112.58C193.095 111.804 192.889 110.934 192.889 109.97C192.889 109.056 193.089 108.212 193.489 107.435C193.902 106.647 194.471 106.021 195.197 105.558C195.922 105.095 196.748 104.863 197.674 104.863C198.637 104.863 199.469 105.076 200.169 105.502C200.883 105.927 201.42 106.509 201.783 107.248C202.159 107.986 202.346 108.819 202.346 109.745C202.346 109.92 202.327 110.139 202.29 110.402H194.953C195.028 111.291 195.341 111.979 195.891 112.467C196.454 112.943 197.105 113.181 197.843 113.181C198.431 113.181 198.937 113.049 199.363 112.786C199.8 112.511 200.151 112.142 200.413 111.679L202.159 112.505C201.708 113.293 201.12 113.913 200.395 114.364C199.669 114.814 198.8 115.04 197.786 115.04ZM200.245 108.825C200.22 108.487 200.113 108.155 199.926 107.83C199.738 107.492 199.45 107.21 199.062 106.985C198.687 106.76 198.224 106.647 197.674 106.647C197.011 106.647 196.448 106.847 195.985 107.248C195.534 107.636 195.222 108.161 195.047 108.825H200.245Z" fill="#5D5D5D"/>
<path d="M208.746 115.04C207.795 115.04 206.938 114.821 206.175 114.382C205.425 113.944 204.837 113.344 204.411 112.58C203.999 111.804 203.792 110.928 203.792 109.951C203.792 108.975 203.999 108.105 204.411 107.342C204.837 106.566 205.425 105.958 206.175 105.52C206.938 105.082 207.795 104.863 208.746 104.863C209.797 104.863 210.692 105.101 211.43 105.577C212.168 106.052 212.693 106.697 213.006 107.511L211.111 108.299C210.685 107.285 209.878 106.778 208.69 106.778C208.177 106.778 207.702 106.91 207.264 107.173C206.838 107.435 206.494 107.811 206.232 108.299C205.981 108.775 205.856 109.326 205.856 109.951C205.856 110.577 205.981 111.134 206.232 111.622C206.494 112.111 206.838 112.486 207.264 112.749C207.702 113.012 208.177 113.143 208.69 113.143C209.29 113.143 209.803 113.012 210.229 112.749C210.666 112.474 210.998 112.086 211.223 111.585L213.081 112.392C212.718 113.206 212.168 113.85 211.43 114.326C210.692 114.802 209.797 115.04 208.746 115.04Z" fill="#5D5D5D"/>
<path d="M214.836 101.296H216.901V104.957L216.807 106.422H216.901C217.176 105.971 217.582 105.602 218.12 105.314C218.671 105.013 219.259 104.863 219.884 104.863C221.048 104.863 221.936 105.207 222.549 105.896C223.162 106.572 223.468 107.498 223.468 108.675V114.739H221.404V108.956C221.404 108.23 221.21 107.686 220.822 107.323C220.447 106.96 219.953 106.778 219.34 106.778C218.877 106.778 218.458 106.91 218.083 107.173C217.72 107.435 217.432 107.786 217.22 108.224C217.007 108.65 216.901 109.106 216.901 109.595V114.739H214.836V101.296Z" fill="#5D5D5D"/>
<path d="M225.813 105.164H227.784V106.422H227.877C228.165 105.958 228.572 105.583 229.097 105.295C229.623 105.007 230.186 104.863 230.786 104.863C231.474 104.863 232.075 105.026 232.587 105.351C233.1 105.664 233.469 106.084 233.695 106.609C234.02 106.084 234.451 105.664 234.989 105.351C235.54 105.026 236.184 104.863 236.922 104.863C238.023 104.863 238.855 105.201 239.418 105.877C239.993 106.541 240.281 107.448 240.281 108.6V114.739H238.217V108.956C238.217 107.504 237.598 106.778 236.359 106.778C235.696 106.778 235.152 107.047 234.727 107.586C234.301 108.124 234.089 108.787 234.089 109.576V114.739H232.025V108.956C232.025 107.504 231.387 106.778 230.11 106.778C229.46 106.778 228.922 107.047 228.497 107.586C228.084 108.124 227.877 108.787 227.877 109.576V114.739H225.813V105.164Z" fill="#5D5D5D"/>
<path d="M245.547 115.04C244.859 115.04 244.246 114.908 243.708 114.645C243.17 114.37 242.751 113.988 242.45 113.5C242.15 112.999 242 112.436 242 111.81C242 110.821 242.369 110.039 243.107 109.463C243.858 108.887 244.802 108.6 245.941 108.6C246.504 108.6 247.01 108.656 247.461 108.769C247.911 108.869 248.268 108.981 248.53 109.107V108.618C248.53 108.03 248.311 107.554 247.874 107.191C247.436 106.816 246.873 106.628 246.185 106.628C245.697 106.628 245.234 106.735 244.796 106.947C244.371 107.16 244.027 107.454 243.764 107.83L242.319 106.722C242.744 106.134 243.295 105.677 243.97 105.351C244.646 105.026 245.397 104.863 246.222 104.863C247.611 104.863 248.681 105.207 249.431 105.896C250.182 106.572 250.557 107.529 250.557 108.769V114.739H248.53V113.594H248.437C248.161 114.007 247.774 114.351 247.273 114.626C246.773 114.902 246.197 115.04 245.547 115.04ZM245.903 113.331C246.404 113.331 246.854 113.212 247.254 112.974C247.655 112.736 247.967 112.417 248.193 112.017C248.418 111.616 248.53 111.184 248.53 110.721C248.243 110.558 247.905 110.427 247.517 110.327C247.142 110.227 246.748 110.177 246.335 110.177C245.559 110.177 244.99 110.333 244.627 110.646C244.264 110.947 244.083 111.341 244.083 111.829C244.083 112.267 244.252 112.63 244.59 112.918C244.927 113.193 245.365 113.331 245.903 113.331Z" fill="#5D5D5D"/>
<path d="M252.807 101.296H254.871V109.125H254.927L258.849 105.164H261.438V105.276L257.723 108.975L261.551 114.626V114.739H259.093L256.278 110.402L254.871 111.773V114.739H252.807V101.296Z" fill="#5D5D5D"/>
<path d="M266.928 115.04C265.99 115.04 265.145 114.821 264.395 114.382C263.656 113.944 263.075 113.344 262.649 112.58C262.237 111.804 262.03 110.934 262.03 109.97C262.03 109.056 262.23 108.212 262.631 107.435C263.043 106.647 263.613 106.021 264.338 105.558C265.064 105.095 265.89 104.863 266.815 104.863C267.779 104.863 268.61 105.076 269.311 105.502C270.024 105.927 270.562 106.509 270.925 107.248C271.3 107.986 271.488 108.819 271.488 109.745C271.488 109.92 271.469 110.139 271.432 110.402H264.094C264.169 111.291 264.482 111.979 265.033 112.467C265.596 112.943 266.246 113.181 266.984 113.181C267.572 113.181 268.079 113.049 268.504 112.786C268.942 112.511 269.292 112.142 269.555 111.679L271.3 112.505C270.85 113.293 270.262 113.913 269.536 114.364C268.811 114.814 267.941 115.04 266.928 115.04ZM269.386 108.825C269.361 108.487 269.255 108.155 269.067 107.83C268.879 107.492 268.592 107.21 268.204 106.985C267.829 106.76 267.366 106.647 266.815 106.647C266.152 106.647 265.589 106.847 265.126 107.248C264.676 107.636 264.363 108.161 264.188 108.825H269.386Z" fill="#5D5D5D"/>
<path d="M273.368 105.164H275.338V106.572H275.432C275.644 106.084 276.013 105.683 276.539 105.37C277.064 105.045 277.621 104.882 278.209 104.882C278.672 104.882 279.06 104.945 279.372 105.07V107.21C278.822 107.01 278.328 106.91 277.89 106.91C277.415 106.91 276.989 107.035 276.614 107.285C276.251 107.536 275.963 107.874 275.751 108.299C275.538 108.712 275.432 109.169 275.432 109.67V114.739H273.368V105.164Z" fill="#5D5D5D"/>
<path d="M284.078 115.04C282.977 115.04 282.076 114.802 281.376 114.326C280.675 113.838 280.181 113.218 279.893 112.467L281.732 111.66C281.958 112.161 282.27 112.542 282.671 112.805C283.084 113.068 283.553 113.2 284.078 113.2C284.591 113.2 285.023 113.112 285.373 112.937C285.723 112.749 285.898 112.474 285.898 112.111C285.898 111.76 285.748 111.485 285.448 111.284C285.148 111.084 284.685 110.909 284.059 110.759L282.915 110.477C282.152 110.289 281.52 109.958 281.019 109.482C280.519 109.006 280.269 108.406 280.269 107.68C280.269 107.116 280.431 106.622 280.757 106.196C281.094 105.771 281.545 105.445 282.108 105.22C282.671 104.982 283.284 104.863 283.947 104.863C284.835 104.863 285.617 105.045 286.292 105.408C286.968 105.758 287.456 106.271 287.756 106.947L285.955 107.736C285.592 106.997 284.929 106.628 283.965 106.628C283.503 106.628 283.115 106.722 282.802 106.91C282.489 107.098 282.333 107.342 282.333 107.642C282.333 107.93 282.452 108.168 282.689 108.355C282.927 108.531 283.277 108.681 283.74 108.806L285.148 109.163C286.086 109.401 286.793 109.764 287.268 110.252C287.756 110.727 288 111.316 288 112.017C288 112.618 287.825 113.149 287.475 113.613C287.137 114.063 286.668 114.414 286.067 114.664C285.467 114.914 284.804 115.04 284.078 115.04Z" fill="#5D5D5D"/>
</svg>
